<?xml version="1.0" encoding="utf-8"?>
<!-- Generator: Adobe Illustrator 16.0.0, SVG Export Plug-In . SVG Version: 6.00 Build 0)  -->
<!DOCTYPE svg PUBLIC "-//W3C//DTD SVG 1.1//EN" "http://www.w3.org/Graphics/SVG/1.1/DTD/svg11.dtd">
<svg version="1.1" id="Layer_1" xmlns="http://www.w3.org/2000/svg" xmlns:xlink="http://www.w3.org/1999/xlink" x="0px" y="0px"
	 width="200.041px" height="200.043px" viewBox="0 0 200.041 200.043" enable-background="new 0 0 200.041 200.043"
	 xml:space="preserve">
<g>
	<g>
		<path fill="#F7F7F7" d="M31.66-0.353c44.916,0,89.831,0,134.746,0c0.278,0.197,0.596,0.256,0.932,0.279
			c4.782,0.322,9.442,1.319,13.687,3.525c4.242,2.206,8.514,4.557,11.096,8.86c2.876,4.792,5.166,9.828,5.777,15.48
			c0.703,6.5,1.217,12.995,1.203,19.555c-0.086,39.301-0.045,78.603-0.033,117.905c0,1.706-0.205,3.366-0.541,5.037
			c-0.539,2.676-0.328,5.438-0.862,8.125c-1.084,5.459-2.729,10.573-6.692,14.813c-2.313,2.475-4.832,4.57-7.615,6.42
			c-1.506,0-3.014,0-4.52,0c-0.066-0.946,0.669-1.326,1.311-1.646c1.857-0.928,3.552-2.121,5.346-3.15
			c0.497-0.285,0.923-0.631,1.318-1.043c4.646-4.839,7.346-10.729,8.527-17.195c0.799-4.366,1.172-8.854,1.038-13.34
			c-0.038-1.27,0.09-2.537,0.09-3.811c-0.008-38.361-0.016-76.726,0.003-115.089c0.004-5.319-0.253-10.631-0.979-15.884
			c-0.688-4.98-2.598-9.531-5.374-13.82c-3.351-5.177-8.257-8.026-13.718-10.097c-3.512-1.333-7.27-1.917-11.039-2.199
			c-5.348-0.4-10.701-0.586-16.066-0.583C114.271,1.806,79.25,1.771,44.229,1.823c-6.218,0.009-12.39,0.819-18.489,2.009
			c-2.496,0.487-4.828,1.567-6.963,3.001c-0.315,0.212-0.616,0.433-0.726,0.823c-0.257,0.595-0.774,0.78-1.36,0.83
			c-1.535,0.131-2.911,0.68-4.164,1.558c-1.328,0.745-1.976,1.95-2.275,3.389C10.029,14.14,10.1,14.92,9.72,15.59
			c-0.16,0.203-0.363,0.343-0.605,0.432c-0.722,0.305-1.035,0.964-1.276,1.617C6.258,21.916,4.42,26.138,4.062,30.75
			C3.771,34.493,3.3,38.235,3.58,42.005c0.039,0.516,0.025,1.035,0.025,1.553c0,40.423,0.002,80.846-0.013,121.269
			c-0.001,0.998,0.293,2.103-0.628,2.918c-1.264-0.185-1.984-0.87-2.191-2.13c-0.13-0.793-0.075-1.598-0.075-2.397
			C0.695,122.924,0.695,82.63,0.694,42.337c0-1.129,0.034-2.26-0.127-3.384c-0.04-0.28-0.107-0.588-0.004-0.841
			c1.255-3.078,0.617-6.406,1.306-9.58c0.806-3.717,1.468-7.439,3.065-10.939c0.97-2.125,2.384-3.929,3.755-5.766
			c0.532-0.713,0.923-1.561,1.581-2.148c3.764-3.357,7.769-6.358,12.713-7.77c2.605-0.744,5.213-1.507,7.896-1.949
			C31.159-0.086,31.425-0.187,31.66-0.353z"/>
		<path fill="#F4F4F4" d="M17.818,7.839c-0.408-0.505-0.558-0.854,0.224-1.262c2.193-1.146,4.371-2.337,6.75-3.039
			c2.106-0.621,4.313-0.762,6.483-1.08c3.425-0.501,6.872-0.743,10.313-1.067c0.467-0.044,0.939-0.047,1.409-0.047
			c37.565-0.002,75.131-0.042,112.695,0.046c4.945,0.011,9.934,0.228,14.822,1.135c4.773,0.886,9.23,2.607,13.377,5.232
			c2.074,1.313,3.871,2.905,5.305,4.756c3.336,4.303,5.637,9.198,6.535,14.593c0.621,3.725,1.125,7.522,1.134,11.288
			c0.079,40.743,0.04,81.487,0.059,122.23c0.002,5.569-0.167,11.16-1.241,16.599c-0.885,4.471-2.291,8.957-5.139,12.666
			c-1.236,1.608-2.21,3.569-3.854,4.725c-1.5,1.057-3.053,2.137-4.752,2.931c-1.139,0.532-2.342,1.001-3.104,2.104
			c-2.072,0-4.145,0-6.215,0c-0.005-0.946,0.813-1.078,1.417-1.34c2.153-0.934,4.374-1.688,6.456-2.824
			c4.592-2.504,7.941-6.071,10.092-10.844c1.303-2.889,2.373-5.826,2.934-8.957c0.498-2.783,0.676-5.602,0.918-8.404
			c0.56-6.477,0.32-12.979,0.322-19.469c0.01-35.021,0.041-70.042-0.029-105.062c-0.013-6.354-0.427-12.762-2.351-18.849
			c-2.604-8.235-7.812-14.271-16.219-17.151c-1.604-0.549-3.222-1.046-4.854-1.499c-3.934-1.089-8.002-1.027-12.007-1.511
			c-2.989-0.361-5.896,0.323-8.849,0.322C116.655,4.055,82.858,4.057,49.063,4.06c-1.226,0-2.451,0.01-3.658-0.23
			c-3.446-0.688-6.86,0.045-10.249,0.399c-3.111,0.325-6.246,0.764-9.273,1.727c-1.803,0.573-3.54,1.253-5.212,2.125
			C19.693,8.309,18.718,8.524,17.818,7.839z"/>
		<path fill="#EDEDED" d="M163.864,199.646c-44.352,0-88.701,0-133.052,0c-2.611-0.154-5.016-1.097-7.424-1.996
			c-6.007-2.25-10.492-6.142-13.586-11.851c-2.701-4.985-3.56-10.344-4.316-15.813c-0.417-3.012-0.568-5.975-0.047-8.973
			c0.12-0.693,0.058-1.408,0.058-2.113c0.001-37.973,0.008-75.943-0.013-113.916c-0.002-2.814-0.244-5.614-0.029-8.444
			c0.329-4.325,0.796-8.611,2.009-12.786c0.267-0.919,0.479-2.009,1.862-1.874c0.311,0.251,0.373,0.605,0.403,0.973
			c-0.048,1.897,0.197,3.803-0.152,5.693c-0.664,1.237-0.743,2.598-0.875,3.957C7.673,43.156,8.179,53.836,8.155,64.503
			c-0.066,30.903,0.002,61.806-0.044,92.709c-0.01,6.399-0.007,12.781,1.348,19.076c0.073,2.354,0.97,4.489,1.863,6.606
			c2.547,6.026,7.259,9.722,13.14,12.209c3.075,1.301,6.256,1.908,9.553,2.213c1.722,0.158,3.449,0.394,5.157,0.654
			c1.935,0.295,3.831-0.059,5.745,0.014c0.812,0.031,1.675-0.149,2.519-0.149c34.972-0.004,69.943-0.002,104.915-0.006
			c1.928,0,3.828,0.367,5.766,0.305c2.445-0.079,4.854-0.354,7.268-0.75c2.637-0.432,5.289-0.712,7.869-1.479
			c3.85-1.146,7.199-3.063,10.188-5.764c4.031-3.644,5.852-8.379,7.229-13.424c1.416-5.179,1.591-10.475,1.595-15.777
			c0.022-40.149,0.026-80.298-0.005-120.447c-0.005-5.753-0.731-11.433-2.731-16.871c-1.826-4.971-4.73-9.156-9.254-12.083
			c-0.611-0.396-1.084-0.84-0.362-1.555c0.869-0.376,1.555,0.082,2.219,0.525c2.716,1.812,4.834,4.252,6.474,6.993
			c3.267,5.458,4.965,11.416,5.104,17.824c0.617,28.415,0.117,56.832,0.258,85.247c0.067,13.74,0.017,27.479,0.011,41.219
			c-0.002,5.182-0.174,10.366-1.453,15.41c-1.799,7.087-5.101,13.258-11.539,17.251c-3.598,2.231-7.551,3.545-11.73,4.245
			C167.454,198.999,165.599,198.988,163.864,199.646z"/>
		<path fill="#F0F0F0" d="M163.864,199.646c0.373-0.645,0.99-0.766,1.672-0.855c3.574-0.48,7.172-0.986,10.525-2.34
			c4.963-2.002,9.295-5.018,12.047-9.689c2.703-4.586,4.375-9.566,4.898-14.967c0.857-8.826,0.477-17.658,0.492-26.486
			c0.061-35.306,0.061-70.613-0.012-105.919c-0.012-5.469-0.455-10.962-2.523-16.126c-1.54-3.846-3.563-7.477-6.591-10.346
			c-1.229-1.166-2.427-2.695-4.408-2.816c-0.479,0.299-0.922,0.087-1.33-0.139c-4.812-2.668-10.096-3.348-15.456-3.991
			c-3.397-0.408-6.738-0.233-10.115-0.229C116.588,5.787,80.113,5.82,43.638,5.714c-5.169-0.017-10.2,0.586-15.235,1.55
			c-0.753,0.145-1.44,0.411-2.08,0.823c-1.906,0.226-3.821,0.628-5.679-0.249c0.384-0.681,1.11-0.83,1.747-1.101
			c4.837-2.06,9.956-2.759,15.144-3.146c1.348-0.101,2.692-0.294,4.026-0.515c1.383-0.229,2.712,0.185,4.052,0.323
			C46.641,3.505,47.662,3.6,48.691,3.6c34.175,0.004,68.35,0.003,102.523,0.003c0.893,0,1.771,0.004,2.651-0.25
			c2.416-0.696,4.838,0.075,7.261,0.072c2.268-0.003,4.532,0.337,6.784,0.57c2.022,0.209,3.995,0.954,5.978,1.507
			c3.407,0.952,6.67,2.249,9.451,4.494c1.962,1.583,3.826,3.252,5.277,5.39c1.111,1.638,2.051,3.328,2.938,5.091
			c1.788,3.556,2.342,7.391,2.801,11.24c1.639,13.725,0.761,27.511,0.824,41.269c0.135,28.903,0.047,57.805,0.032,86.708
			c-0.002,3.793-0.368,7.562-0.731,11.342c-0.314,3.283-0.697,6.513-1.768,9.617c-1.556,4.519-3.617,8.765-7.307,11.994
			c-1.485,1.301-3.145,2.336-4.856,3.332c-2.366,1.375-4.993,2.058-7.444,3.185c-0.194,0.09-0.324,0.319-0.483,0.485
			C169.702,199.646,166.783,199.646,163.864,199.646z"/>
		<path fill="#F4F4F4" d="M9.344,21.964c-0.861,0.089-1.181,0.75-1.363,1.433c-1.16,4.35-2.007,8.767-2.01,13.275
			C5.942,77.735,5.96,118.797,5.933,159.859c-0.001,1.662-0.265,3.332-0.492,4.986c-0.257,1.862,0.36,3.629,0.585,5.424
			c0.422,3.373,0.666,6.803,1.888,10.037c1.429,3.782,3.135,7.356,5.884,10.449c3.171,3.566,7.149,5.637,11.536,7.102
			c1.539,0.514,2.982,1.445,4.722,1.25c0.357-0.041,0.601,0.225,0.758,0.539c-3.86,0-7.721,0-11.581,0
			c-2.435-1.138-4.742-2.449-6.455-4.604c-0.32-0.402-0.7-0.764-1.092-1.098c-2.667-2.274-4.358-5.262-5.751-8.367
			c-2.146-4.785-3.346-9.831-3.183-15.123c0.028-0.908-0.561-1.846,0.096-2.729c0.313-0.511,0.284-1.076,0.284-1.644
			C3.129,124.825,3.155,83.566,3.096,42.308c-0.008-4.913,0.066-9.815,0.948-14.63c0.673-3.679,2.125-7.177,3.538-10.651
			c0.124-0.304,0.312-0.583,0.431-0.888c0.281-0.72,0.742-0.758,1.331-0.389C9.988,17.821,9.989,19.893,9.344,21.964z"/>
		<path fill="#F8F8F8" d="M183.354,199.646c0.168-1.104,1.129-1.521,1.922-1.898c1.317-0.633,2.344-1.564,3.283-2.613
			c2.336-2.605,4.934-4.996,6.228-8.41c1.265-3.336,2.206-6.717,2.726-10.262c1.407-9.613,1.09-19.277,1.094-28.936
			c0.01-35.9,0.012-71.801-0.008-107.701c-0.002-3.604-0.813-7.143-1.05-10.732c-0.153-2.346-0.616-4.638-1.269-6.884
			c-0.799-2.761-2.206-5.268-3.446-7.846c-0.823-1.712-2.196-3.004-3.2-4.575c-1.021-1.603-2.83-2.3-4.324-3.301
			c-2.274-1.523-4.635-2.945-7.262-3.902c-1.593-0.581-3.221-0.861-4.841-1.243c-2.088-0.492-4.136-1.187-6.313-1.23
			c-0.166-0.003-0.324-0.304-0.486-0.466c4.708,0,9.416,0,14.123,0c0.951,1.18,2.507,1.195,3.707,1.919
			c2.488,1.5,4.839,3.109,6.986,5.12c3.104,2.907,5.129,6.424,6.541,10.306c0.859,2.364,1.643,4.778,2.258,7.231
			c0,52.73,0,105.462,0,158.192c-0.858,1.834-1.125,3.878-1.998,5.704c-0.976,2.035-2.146,3.949-3.463,5.792
			c-1.071,1.501-2.184,2.871-3.883,3.723c-0.84,0.421-1.324,1.318-1.955,2.013C186.935,199.646,185.146,199.646,183.354,199.646z"/>
		<path fill="#F8F8F8" d="M2.847,167.727c0.406,3.619,0.146,7.316,1.148,10.86c1.114,3.94,2.407,7.733,4.773,11.251
			c1.55,2.305,3.698,3.91,5.304,6.074c0.713,0.961,1.941,1.6,3.039,2.195c0.79,0.431,1.512,0.889,2.12,1.539
			c-2.637,0-5.273,0-7.91,0c-1.55-1.684-3.191-3.282-4.66-5.041c-0.39-0.467-0.665-1.049-1.125-1.434
			c-2.438-2.039-3.136-5.018-4.215-7.775c-0.457-1.17-0.812-2.383-1.299-3.547c0-48.115,0-96.232,0-144.35
			c0.455-0.738,0.695-1.56,0.708-2.409c0.073-4.971,1.142-9.772,2.439-14.533c0.472-1.728,1.115-3.389,2.16-4.876
			c1.27-1.808,2.43-3.693,3.736-5.474c1.067-1.456,2.403-2.602,4.009-3.477c1.768-0.965,3.159-2.479,5.016-3.374
			c3.838-1.85,7.825-3.094,12.06-3.554c0.145-0.016,0.269-0.065,0.38-0.155c0.377,0,0.754,0,1.13,0
			c-0.536,0.737-1.31,1.069-2.171,1.115c-1.613,0.086-3.154,0.451-4.59,1.159c-0.711,0.35-1.466,0.248-2.189,0.461
			c-3.203,0.945-5.988,2.628-8.518,4.742c-0.754,0.63-1.703,0.809-2.425,1.602c-2.986,3.275-5.696,6.733-7.275,10.896
			c-1.142,3.009-1.77,6.178-2.244,9.38c-0.325,2.188-0.64,4.356-0.534,6.57c0.005,0.094,0.025,0.207-0.016,0.279
			c-1.266,2.209-0.514,4.592-0.516,6.881C1.14,83.266,1.161,123.799,1.117,164.334C1.115,165.883,1.569,166.951,2.847,167.727z"/>
		<path fill="#FCFCFC" d="M200.022,24.224c-1.236-1.711-1.566-3.794-2.199-5.725c-0.787-2.397-1.415-4.814-3.24-6.678
			c-0.559-0.571-0.357-1.437-0.916-2.02c-1.954-2.042-3.721-4.224-6.264-5.698c-1.25-0.726-2.4-1.692-3.729-2.371
			c-0.588-0.301-1.105-0.652-1.804-0.7c-0.81-0.055-1.251-0.577-1.341-1.385c6.215,0,12.43,0.013,18.645-0.019
			c0.706-0.003,0.868,0.16,0.865,0.866C200.013,8.404,200.022,16.314,200.022,24.224z"/>
		<path fill="#F8F8F8" d="M30.53-0.353c-1.115,0.512-2.345,0.632-3.504,1.044c-2.138,0.759-4.422,1.065-6.538,1.967
			c-2.21,0.942-4.337,2.025-6.073,3.69c-0.842,0.808-1.954,1.032-2.839,1.768c-2.479,2.063-3.8,4.958-5.679,7.447
			c-2.019,2.675-2.433,5.924-3.365,9.003c-0.682,2.252-0.555,4.616-1.233,6.87c-0.326,1.084-0.11,2.33-0.148,3.502
			c-0.032,1.003-0.114,1.989-1.128,2.562c0-5.932,0-11.865,0-17.797c0.834-2.391,1.887-4.684,3.252-6.816
			c2.188-3.417,4.136-7.066,7.833-9.183c2.271-1.3,4.587-2.519,6.711-4.058C22.056-0.353,26.293-0.353,30.53-0.353z"/>
		<path fill="#FEFEFE" d="M17.818-0.353c-0.506,1.027-1.446,1.527-2.396,2.052c-2.799,1.547-5.645,2.996-7.854,5.446
			C6.607,8.21,6.025,9.472,5.209,10.602c-0.858,1.187-1.607,2.467-2.332,3.758c-0.712,1.268-1.469,2.488-1.856,3.902
			c-0.163,0.594-0.362,1.171-0.998,1.441C0.022,13.325,0.039,6.945,0,0.566c-0.005-0.772,0.143-0.949,0.933-0.942
			C6.561-0.333,12.189-0.353,17.818-0.353z"/>
		<path fill="#FCFCFC" d="M0.022,181.852c0.681,0.379,0.91,1.088,1.084,1.739c0.633,2.374,1.739,4.562,2.607,6.841
			c0.559,1.467,2.125,2.191,2.935,3.527c1.122,1.855,3.055,3.021,4.253,4.83c0.183,0.273,0.42,0.502,0.42,0.857
			c-3.484,0-6.968-0.021-10.451,0.02c-0.708,0.009-0.871-0.16-0.867-0.866C0.037,193.15,0.022,187.5,0.022,181.852z"/>
		<path fill="#FDFDFD" d="M188.724,199.646c0.026-1.277,1.018-2.055,1.898-2.42c1.975-0.818,2.85-2.566,4.004-4.07
			c2.157-2.807,3.631-5.979,4.5-9.41c0.15-0.594,0.346-1.055,0.896-1.33c0,5.461-0.017,10.922,0.019,16.384
			c0.004,0.706-0.159,0.875-0.867,0.866C195.69,199.625,192.206,199.646,188.724,199.646z"/>
		<path fill="#FEFEFE" d="M20.645,7.837c1.884,0,3.768,0,5.65-0.001c1.949-0.819,3.988-0.381,5.993-0.437
			c1.788,0.117,3.573-0.051,5.36-0.051c41.546,0,83.092,0.001,124.638-0.002c1.13,0,2.256,0.06,3.382,0.107
			c0.41,0.045,0.785,0.234,1.19,0.3c1.186,0.309,2.371,0.619,3.318,1.468c0.838,0.601,1.596,1.279,2.137,2.173
			c0.457,0.717,0.832,1.476,1.187,2.249c0.209,0.535,0.354,1.083,0.362,1.662c0.027,35.259,0.008,70.516,0.013,105.772
			c0.002,16.711,0.004,33.422-0.001,50.129c0.134,2-0.732,3.66-1.801,5.251c-0.311,0.436-0.692,0.805-1.086,1.163
			c-1.604,1.14-3.256,2.153-5.334,2.092c-47.063,0.005-94.124,0-141.184,0.005c-2.487-0.014-4.977-0.001-7.466-0.008
			c-0.659-0.002-1.316-0.009-1.933-0.285c-0.862-0.314-1.669-0.742-2.424-1.27c-0.844-0.774-1.612-1.62-2.288-2.553
			c-0.715-1.447-1.225-2.947-1.142-4.595c0.168-49.375-0.339-98.749,0.27-148.12c0.079-2.474-0.165-4.953,0.138-7.423
			c-0.065-0.773,0.057-1.522,0.283-2.259c0.662-1.191,1.296-2.4,2.261-3.39c1.616-1.421,3.68-1.564,5.648-1.978
			C18.761,7.838,19.702,7.838,20.645,7.837z"/>
		<path fill="#F8F8F8" d="M9.626,15.466c0,2.449,0,4.897-0.001,7.346c-0.094,0.13-0.188,0.13-0.28-0.001
			c-0.001-0.282-0.001-0.564-0.001-0.847c0-2.072,0-4.144,0-6.215C9.438,15.655,9.532,15.561,9.626,15.466z"/>
		<path fill="#F8F8F8" d="M12.17,9.817c-0.625,1.216-1.362,2.356-2.261,3.39C10.259,11.808,10.892,10.598,12.17,9.817z"/>
		<path fill="#EBEBEB" d="M32.228,7.835c-1.978,0-3.955,0.001-5.933,0.001c0.211-0.487,0.667-0.716,1.111-0.787
			c2.166-0.347,4.229-1.233,6.468-1.192c1.741,0.032,3.424-0.482,5.136-0.698c1.173-0.148,2.222,0.155,3.33,0.154
			c37.312-0.02,74.624-0.014,111.937-0.028c0.834,0,1.668-0.188,2.506-0.269c2.742-0.264,5.383,0.615,8.086,0.736
			c2.876,0.128,5.637,0.76,8.406,1.47c2.396,0.613,4.494,1.845,6.691,2.877c-0.17,0.35-0.316,0.637,0.166,0.933
			c6.391,3.926,9.506,10.01,11.108,17.048c0.653,2.87,1.11,5.751,1.2,8.735c0.557,18.585,0.145,37.172,0.215,55.757
			c0.09,23.87,0.078,47.741-0.032,71.61c-0.021,4.135-0.417,8.279-1.444,12.373c-0.867,3.461-2.246,6.666-3.902,9.741
			c-1.393,2.584-3.736,4.442-6.061,6.209c-3.874,2.942-8.412,4.295-13.119,4.972c-4.006,0.576-8.016,1.147-12.109,1.068
			c-36.283-0.702-72.573-0.132-108.86-0.298c-1.661-0.009-3.322,0.209-4.984,0.259c-2.254,0.067-4.484-0.23-6.707-0.563
			c-2.816-0.42-5.698-0.495-8.417-1.432c-3.604-1.24-6.978-2.879-9.98-5.332c-1.783-1.455-3.337-3.131-4.486-4.99
			c-1.816-2.936-3.194-6.16-3.489-9.707c0.757-0.102,0.826,0.5,0.925,0.979c0.459,2.23,1.26,4.354,2.327,6.337
			c2.108,3.923,4.924,7.203,9.063,9.146c0.14,0.084,0.271,0.175,0.403,0.268c4.014,2.223,8.321,3.419,12.88,3.771
			c2.338,0.181,4.653,0.61,7.012,0.567c36.143-0.651,72.289-0.108,108.433-0.272c2.439-0.012,4.877-0.084,7.324,0.22
			c2.478,0.306,4.957-0.187,7.43-0.487c3.176-0.389,6.336-0.834,9.35-1.951c4.857-1.8,9.25-4.391,12.005-8.897
			c2.405-3.937,4.037-8.237,4.688-12.892c0.762-5.42,0.813-10.855,0.812-16.307c-0.007-36.953-0.026-73.905,0.032-110.857
			c0.006-3.855-0.079-7.705-0.379-11.533c-0.305-3.878-1.032-7.722-2.645-11.323c-1.185-2.931-2.791-5.597-5.008-7.877
			c-3.395-3.49-7.521-5.653-12.209-6.836c-1.494-0.377-2.963-0.905-4.531-0.421c-0.313-0.001-0.642,0.051-0.854-0.269
			c-0.23-0.256-0.516-0.399-0.862-0.42c-2.44-0.15-4.864-0.516-7.315-0.516C119.304,6.908,80.666,6.898,42.027,6.928
			C38.745,6.931,35.471,7.277,32.228,7.835z"/>
		<path fill="#EAEAEA" d="M21.208,193.15c-3.138-1.059-5.157-3.475-7.15-5.912c-2.358-2.887-3.623-6.273-4.421-9.859
			c-0.089-0.398-0.195-0.717-0.575-0.896c-0.648-3.674-1.418-7.328-1.417-11.09C7.652,123.432,7.617,81.471,7.713,39.51
			c0.008-3.325,0.231-6.723,1.029-10.016c0.104-0.426,0.145-0.835,0.601-1.033c0.272,0.536,0.132,1.111,0.132,1.665
			c0.008,46.489,0.007,92.979,0.015,139.467c0,0.603-0.146,1.224,0.134,1.808c-0.076,1.533,0.597,2.865,1.134,4.234
			c0.378,4.715,2.621,8.59,5.506,12.167c0.585,0.726,1.375,1.271,1.902,2.058c0.316,1.07,1.168,1.617,2.062,2.142
			C20.674,192.264,21.319,192.395,21.208,193.15z"/>
		<path fill="#F4F4F4" d="M9.623,171.4c-0.513-0.569-0.267-1.264-0.267-1.894c-0.013-47.015-0.013-94.03-0.013-141.046
			c0-1.884,0.001-3.767,0.002-5.65c0.093,0,0.188,0,0.281,0.001C9.625,72.341,9.624,121.871,9.623,171.4z"/>
		<path fill="#E2E2E2" d="M12.739,177.891c0.644,0.399,1.419,0.57,1.974,1.125c0.316,0.287,0.597,0.599,0.76,1.002
			c1.218,3.002,3.326,5.328,5.677,7.465c2.173,1.976,4.82,3.16,7.55,4.007c3.692,1.145,7.559,1.516,11.411,1.762
			c9.872,0.631,19.758,0.252,29.637,0.271c28.333,0.059,56.667,0.059,85-0.017c4.599-0.012,9.22-0.272,13.741-1.312
			c4.378-1.006,8.443-2.701,11.707-5.869c1.791-1.736,3.295-3.771,4.217-6.12c2.229-5.673,3.242-11.567,3.048-17.667
			c-0.05-1.553,0.259-3.086,0.258-4.646c-0.021-36.099,0.035-72.198-0.063-108.296c-0.018-6.278-0.01-12.581-1.189-18.823
			c-1.523-8.06-5.445-14.137-13.275-17.283c-0.567-0.549-0.746-1.322-1.131-1.976c0.567-1.15,1.518-0.714,2.273-0.413
			c1.882,0.751,3.624,1.776,5.285,2.951c4.966,3.512,7.549,8.507,8.936,14.246c0.686,2.832,1,5.709,1.176,8.627
			c0.635,10.522,0.523,21.053,0.525,31.583c0.006,29.797,0.068,59.596-0.056,89.393c-0.023,5.654,0.009,11.375-1.36,16.942
			c-0.89,3.617-2.027,7.15-4.205,10.242c-3.277,4.659-7.758,7.567-13.234,8.992c-5.213,1.354-10.53,1.6-15.896,1.813
			c-11.149,0.446-22.297,0.166-33.442,0.2c-24.008,0.076-48.017,0.11-72.022-0.032c-6.589-0.039-13.203-0.037-19.743-1.533
			c-4.104-0.938-7.775-2.582-11.042-5.043c-1.718-1.295-3.138-3.088-4.372-4.93c-1.112-1.516-1.794-3.26-2.536-4.964
			C12.098,179.023,11.723,178.244,12.739,177.891z"/>
		<path fill="#DADADA" d="M173.188,13.487c0.519-0.573,0.953-0.055,1.379,0.136c7.088,3.177,10.695,8.94,12.185,16.316
			c0.752,3.723,0.966,7.503,1.384,11.262c0.109,0.979-0.297,1.925-0.279,2.929c0.674,38.306,0.154,76.615,0.265,114.923
			c0.017,5.44-0.188,10.902-1.579,16.239c-1.043,4.006-2.518,7.839-5.434,10.797c-2.051,2.08-4.41,3.937-7.287,4.918
			c-2.92,0.998-5.84,1.968-8.93,2.332c-1.254,0.147-2.529,0.259-3.771,0.31c-2.718,0.106-5.424,0.379-8.153,0.375
			c-36.154-0.039-72.309,0.009-108.462-0.068c-4.711-0.01-9.405-0.592-14.055-1.576c-5.653-1.197-10.075-4.15-13.46-8.717
			c-1.024-1.383-1.945-2.891-2.277-4.646c3.185,0.625,6.405,0.137,9.604,0.32c0.086,0.143,0.067,0.268-0.056,0.377
			c-0.183,0.127-0.388,0.191-0.605,0.223c-0.357,0.043-0.717,0.037-1.076,0.041c-0.357,0.019-0.716,0.012-1.074,0.004
			c-0.358,0.015-0.716-0.004-1.073,0c-0.284,0.014-0.567-0.012-0.851-0.004c-0.209,0.01-0.418,0-0.626-0.006
			c-0.271,0-0.541-0.004-0.811-0.002c-0.256,0.006-0.513-0.01-0.767,0.021c-0.761,0.414-0.209,0.906-0.002,1.264
			c0.728,1.258,1.585,2.434,2.54,3.532c0.388,0.64,0.869,1.19,1.519,1.581c0.106,0.064,0.206,0.141,0.303,0.219
			c0.553,0.504,1.172,0.913,1.825,1.273c0.495,0.281,0.97,0.598,1.462,0.885c0.708,0.471,1.513,0.732,2.289,1.055
			c1.173,0.396,2.344,0.795,3.545,1.098c1.298,0.34,2.617,0.572,3.938,0.797c0.143,0.021,0.281,0.056,0.418,0.097
			c0.912,0.272,1.863,0.035,2.784,0.202c0.151,0.018,0.299,0.051,0.445,0.091c1.479,0.271,2.979-0.019,4.463,0.175
			c0.175,0.021,0.343,0.059,0.512,0.104c0.605,0.162,1.221,0.099,1.83,0.099c35.73,0.003,71.46,0.003,107.188,0.001
			c0.168-0.002,0.342-0.002,0.512-0.001c1.039-0.03,2.09,0.147,3.121-0.129c0.154-0.052,0.313-0.082,0.476-0.101
			c2.757,0.024,5.498-0.183,8.234-0.465c0.516-0.123,1.036-0.224,1.555-0.338c0.853-0.064,1.687-0.218,2.49-0.517
			c3.157-0.925,6.256-1.97,8.808-4.175c2.061-1.778,4.139-3.536,4.947-6.305c0.186-0.636,0.646-1.137,1.031-1.664
			c0.533-0.846,0.789-1.77,0.787-2.77c0.307-1.313,0.348-2.691,0.972-3.93c0.632-2.662,0.683-5.396,0.924-8.096
			c0.509-5.67,0.326-11.365,0.327-17.053c0.002-32.652,0.001-65.306-0.001-97.959c0-0.752,0.046-1.506-0.063-2.252
			c-0.059-0.163-0.104-0.33-0.142-0.499c-0.188-2.043,0.075-4.101-0.159-6.144c-0.059-0.149-0.099-0.304-0.127-0.461
			c0.01-2.016-0.35-4.008-0.422-6.019c-0.057-0.139-0.096-0.283-0.125-0.429c-0.484-2.521-0.689-5.112-1.875-7.456
			c-1.139-1.832-2.073-3.79-3.398-5.506c-0.384-0.899-1.021-1.545-1.92-1.937c-1.44-0.849-2.672-2.021-4.197-2.742
			c-0.256-0.179-0.486-0.39-0.703-0.615C173.388,14.431,173.287,13.959,173.188,13.487z"/>
		<path fill="#E5E5E5" d="M14.993,184.109c2.402,3,4.887,5.826,8.474,7.596c2.909,1.434,5.938,2.213,9.06,2.855
			c4.01,0.826,8.067,0.785,12.134,0.871c28.982,0.608,57.968,0.086,86.951,0.256c6.26,0.035,12.522,0.123,18.779-0.026
			c7.012-0.167,14.067-0.091,20.92-1.972c5.729-1.571,10.465-4.594,13.549-9.803c2.824-4.771,4.06-9.998,4.461-15.513
			c0.593-8.163,0.529-16.332,0.529-24.502c0.004-31.491,0.026-62.98-0.022-94.471c-0.009-4.872-0.201-9.756-0.593-14.612
			c-0.354-4.398-1.297-8.729-3.313-12.708c-1.272-2.512-2.94-4.759-5.176-6.571c-1.947-1.58-4.056-2.858-6.302-3.937
			c-0.784-0.377-1.576-0.612-2.387-0.063c-0.567-0.751-1.228-1.41-1.978-1.978c0.429-1.118,1.334-0.641,2.002-0.483
			c1.925,0.456,3.771,1.17,5.478,2.187c3.035,1.807,6.08,3.607,7.889,6.84c0.298,0.532,0.703,1.004,0.73,1.654
			c0.549,1.501,1.393,2.871,1.92,4.375c1.243,3.561,1.973,7.205,2.188,10.996c1.192,20.92,0.362,41.855,0.519,62.782
			c0.156,20.896,0.141,41.797-0.033,62.692c-0.049,5.975-0.188,12.034-2.002,17.838c-1.66,5.312-4.658,9.688-9.289,12.918
			c-3.285,2.293-6.998,3.394-10.834,4.164c-4.476,0.899-9.018,1.026-13.573,1.228c-9.644,0.426-19.283,0.174-28.925,0.197
			c-25.65,0.064-51.303,0.094-76.954-0.023c-6.835-0.031-13.705-0.221-20.409-1.939c-5.502-1.412-10.148-4.135-13.671-8.65
			c-0.288-0.371-0.556-0.77-0.694-1.221C14.266,184.58,14.301,184.141,14.993,184.109z"/>
		<path fill="#B0B0B0" d="M170.873,177.314c0.285-0.299,0.571-0.601,0.856-0.898c0.576-0.188,0.924-0.623,1.211-1.121
			c2.004-3.496,3.117-7.291,3.187-11.285c0.687-39.619,0.159-79.245,0.263-118.868c0.008-3.678-0.082-7.418-1.168-11.016
			c-0.38-1.257-0.647-2.561-1.507-3.618c-0.133-0.798-0.223-1.595,0.046-2.385c0.98,0.014,1.344,0.797,1.729,1.472
			c1.572,2.765,2.267,5.817,2.328,8.935c0.808,40.289,0.158,80.583,0.347,120.875c0.019,3.766-0.245,7.535-1.187,11.199
			c-1.479,5.756-4.75,9.873-10.619,11.795c-4.34,1.422-8.801,1.572-13.244,1.582c-35.684,0.068-71.367,0.047-107.051,0.025
			c-4.43-0.002-8.839-0.307-13.068-1.826c-0.889-0.318-1.767-0.664-2.549-1.197c-0.457-0.313-0.984-0.613-0.851-1.321
			c0.67-0.38,1.382-0.183,2.082-0.15c3.308,1.782,6.92,2.394,10.594,2.462c36.458,0.688,72.919,0.16,109.38,0.256
			c4.74,0.014,9.611,0.095,14.173-1.765C167.685,179.703,169.587,179,170.873,177.314z"/>
		<path fill="#E9E9E9" d="M185.897,19.421c-3.129-5.377-8.129-8.175-13.819-10.009c-0.664-0.214-1.36-0.366-1.998,0.121
			c-0.907-0.755-2.017-1.065-3.106-1.418c0.811-1.161,2.008-0.636,2.908-0.426c3.413,0.794,6.667,2.006,9.701,3.864
			c3.031,1.856,5.421,4.263,7.259,7.251c0.773,1.257,1.854,2.392,1.882,4.007c1.28,2.149,1.61,4.591,2.104,6.973
			c1.021,4.935,1.123,9.954,1.127,14.963c0.025,38.685,0.051,77.37-0.023,116.056c-0.014,6.127-0.125,12.319-2.188,18.207
			c-1.482,4.229-3.277,8.367-6.866,11.303c-3.519,2.877-7.469,4.955-11.979,5.912c-4.084,0.867-8.203,1.613-12.361,1.549
			c-37.829-0.594-75.66-0.061-113.489-0.268c-1.141-0.007-2.22,0.316-3.354,0.32c-2.828,0.011-5.581-0.651-8.379-0.836
			c-4.366-0.289-8.294-1.856-12.105-3.84c-0.661-0.959-2.007-0.975-2.667-1.948c-0.244-0.362-0.793-0.579-0.44-1.159
			c0.791-0.061,1.27,0.533,1.834,0.912c4.443,2.982,9.446,4.257,14.66,5.044c4.58,0.69,9.187,0.638,13.774,0.646
			c34.167,0.072,68.334,0.06,102.501,0.018c5.019-0.006,10.06,0.066,15.037-0.725c5.175-0.82,10.229-1.996,14.499-5.365
			c3.365-2.656,5.898-5.875,7.453-9.889c1.492-3.845,2.1-7.838,2.438-11.925c0.942-11.317,0.497-22.653,0.521-33.981
			c0.065-30.496,0.107-60.993-0.053-91.488c-0.031-5.777-0.423-11.621-2.056-17.269C188.041,23.697,186.899,21.593,185.897,19.421z"
			/>
		<path fill="#E6E6E6" d="M185.897,19.421c1.688,1.807,2.438,4.079,3.084,6.381c1.064,3.799,1.34,7.712,1.773,11.62
			c0.875,7.883,0.467,15.774,0.482,23.658c0.063,32.854,0.087,65.709-0.024,98.563c-0.021,6.487-0.323,13.063-2.321,19.297
			c-1.25,3.897-3.179,7.506-6.482,10.354c-2.922,2.519-6.059,4.41-9.676,5.533c-3.174,0.985-6.461,1.428-9.776,1.733
			c-5.683,0.526-11.37,0.232-17.054,0.239c-35.301,0.04-70.604,0.067-105.905-0.022c-6.416-0.016-12.655-1.361-18.423-4.351
			c-1.237-0.642-2.32-1.583-3.475-2.386c-4.026-3.27-6.188-7.674-7.567-12.532c-0.164-0.577-0.288-1.305,0.224-1.875
			c0.661,0.751,1.321,1.503,1.982,2.255c-0.521,0.547-0.287,1.113-0.019,1.66c0.748,1.524,1.514,3.04,2.272,4.561
			c-0.867,0.5-0.21,0.957,0.081,1.355c2.659,3.65,6.046,6.396,10.295,7.969c4.109,1.521,8.396,2.228,12.759,2.549
			c6.796,0.504,13.601,0.564,20.409,0.563c31.072-0.014,62.145,0.061,93.216-0.063c6.017-0.023,12.065-0.242,18.009-1.604
			c5.37-1.229,10.065-3.501,13.771-7.676c1.742-1.965,3.007-4.188,3.955-6.604c1.5-3.817,2.256-7.767,2.39-11.893
			c1.238-38.201,0.192-76.411,0.535-114.615c0.034-3.86,0.235-7.738-0.054-11.577c-0.377-5.022-0.262-10.11-1.604-15.04
			c-0.646-2.371-1.549-4.629-2.685-6.795C185.843,20.245,185.55,19.901,185.897,19.421z"/>
		<path fill="#E9E9E9" d="M32.228,7.835c1.277-0.937,2.858-0.774,4.285-1.052c1.865-0.362,3.821-0.343,5.738-0.344
			c38.854-0.017,77.709-0.022,116.563,0.012c2.188,0.002,4.377,0.343,6.561,0.57c0.398,0.042,1.05,0.056,0.746,0.825
			C121.489,7.843,76.858,7.839,32.228,7.835z"/>
		<path fill="#B0B0B0" d="M173.76,30.438c1.691,0.513,1.536,2.175,1.849,3.361c0.677,2.57,0.961,5.211,1.008,7.912
			c0.592,34.239,0.063,68.48,0.24,102.721c0.021,4.094,0.063,8.188-0.015,12.279c-0.085,4.488-0.127,8.994-1.151,13.398
			c-0.481,2.065-1.525,3.927-2.549,5.766c-0.213,0.379-0.654,1.127-1.412,0.541c0.84-1.477,1.785-2.91,1.775-4.705
			c0.107-0.145,0.201-0.298,0.281-0.46c1.388-4.163,1.706-8.5,1.713-12.819c0.059-37.757,0.061-75.514-0.004-113.271
			c-0.008-4.169-0.188-8.387-1.79-12.361C173.599,32.009,173.483,31.219,173.76,30.438z"/>
		<path fill="#B0B0B0" d="M170.873,177.314c0.228,0.043,0.452,0.084,0.679,0.127c-0.08,0.156-0.119,0.383-0.248,0.455
			c-2.014,1.155-3.787,2.717-6.131,3.315c-2.503,0.64-5,1.164-7.598,1.21c-36.063,0.635-72.127,0.13-108.19,0.232
			c-4.615,0.015-9.287,0.006-13.814-1.139c-1.389-0.35-3.019-0.441-3.91-1.91c0.776-0.276,1.563-0.174,2.351-0.066
			c2.347,0.934,4.845,1.257,7.308,1.445c2.569,0.197,5.156,0.384,7.742,0.385c34.008,0.005,68.016,0.039,102.023-0.041
			c4.35-0.01,8.751-0.092,13.012-1.289c0.364-0.104,0.699-0.273,1.059-0.385c0.311-0.163,0.675-0.163,0.986-0.323
			C167.979,179.273,169.401,178.238,170.873,177.314z"/>
		<path fill="#D8D8D8" d="M173.741,171.682c-0.08,0.002-0.159,0.012-0.237,0.029c-0.014-0.281-0.041-0.563-0.041-0.845
			c0.007-51.987,0.015-103.976,0.022-155.963c0.308,0.005,0.631-0.038,0.83,0.281c-0.168,0.241-0.141,0.532-0.2,0.801
			c-0.021,0.233-0.021,0.466-0.017,0.7c0.012,0.188,0.014,0.374,0.014,0.562c0.008,0.261,0.009,0.522,0.012,0.783
			c0.01,0.201,0.012,0.402,0.008,0.604c-0.007,0.336,0.003,0.673-0.002,1.009c-0.008,0.469,0.078,0.933,0.08,1.401
			c-0.021,0.333-0.072,0.662-0.078,0.996c-0.023,0.477,0.061,0.947,0.094,1.42c-0.021,0.572-0.096,1.141-0.08,1.716
			c0.041,0.384,0.012,0.767,0.008,1.151c-0.006,0.646,0.137,1.323-0.391,1.859c0,0.751-0.002,1.502-0.003,2.253
			c0,0.755,0,1.51,0,2.265c0.453,0.865,0.48,1.807,0.48,2.749c0.002,44.305,0.003,88.609-0.007,132.916
			C174.233,169.488,174.259,170.629,173.741,171.682z"/>
		<path fill="#D9D9D9" d="M166.14,179.332c-0.195,0.089-0.391,0.178-0.586,0.268c-0.865,0.455-1.808,0.48-2.75,0.48
			c-42.039,0.002-84.08,0.002-126.12,0c-0.943,0-1.885-0.031-2.754-0.473c-0.757,0-1.513,0-2.27,0c-0.657,0-1.314,0-1.972,0
			c-0.558,0.49-1.238,0.377-1.893,0.393c-0.48,0.053-0.961-0.004-1.441-0.009c-0.477,0.019-0.953,0.022-1.428-0.054
			c-0.243-0.047-0.46-0.144-0.611-0.352c0-0.084,0.001-0.168,0.001-0.251c7.009-0.012,14.018-0.03,21.026-0.03
			c39.89-0.005,79.779-0.003,119.669-0.002C165.388,179.305,165.765,179.322,166.14,179.332z"/>
		<path fill="#EAEAEA" d="M21.208,193.15c2.397,0.672,4.521,2.004,6.937,2.703c3.187,0.924,6.483,0.862,9.678,1.543
			c2.388,0.51,4.756,0.012,7.133,0.01c36.81-0.027,73.619-0.1,110.428,0.092c4.193,0.021,8.295-0.408,12.418-0.766
			c2.141-0.185,4.324-0.775,6.367-1.625c3.7-1.539,7.303-3.316,9.996-6.357c3.602-4.066,5.486-8.988,6.541-14.273
			c0.65-3.266,0.777-6.565,0.832-9.871c0.667-40.231,0.115-80.466,0.279-120.701c0.01-2.384-0.471-4.768-0.461-7.131
			c0.017-3.173-0.572-6.208-1.217-9.263c-0.341-1.607-0.865-3.157-1.416-4.7c1.498,1.284,1.428,3.222,1.894,4.882
			c1.192,4.259,1.431,8.675,1.475,13.075c0.077,7.652,0.021,15.305,0.021,22.958c0,33.425,0.059,66.85-0.047,100.276
			c-0.021,7.045-1.021,13.934-4.381,20.402c-2.418,4.656-6.113,7.594-10.561,9.867c-3.29,1.684-6.833,2.457-10.502,2.871
			c-2.881,0.326-5.73,0.866-8.652,0.815c-37.509-0.662-75.02-0.104-112.528-0.3c-1.507-0.008-2.967,0.433-4.485,0.302
			c-4.841-0.418-9.731-0.577-14.376-2.17C24.703,195.148,22.764,194.504,21.208,193.15z"/>
		<path fill="#CCCCCC" d="M173.761,19.708c0-0.376,0-0.753,0-1.129c0.543-0.231,1.023-0.063,1.446,0.272
			c3.244,2.569,5.625,5.725,6.853,9.738c1.523,4.99,1.91,10.101,1.996,15.28c0.623,37.225,0.152,74.451,0.205,111.678
			c0.01,6.494,0.061,13.092-1.912,19.41c-1.863,5.966-5.529,10.344-11.539,12.625c-3.707,1.408-7.502,1.914-11.438,2.045
			c-37.307,1.234-74.623,0.227-111.934,0.484c-4.579,0.033-9.213-0.252-13.722-1.176c-4.62-0.945-8.91-2.726-12.029-6.521
			c-0.664-0.811-1.545-1.564-1.321-2.811c0.376,0,0.753,0,1.129,0c0.679,0.594,1.162,1.354,1.73,2.041
			c2.29,2.771,5.386,4.156,8.72,5.146c3.581,1.064,7.277,1.338,10.973,1.404c36.936,0.668,73.875,0.181,110.812,0.205
			c4.168,0.004,8.453-0.066,12.576-1.069c5.812-1.415,10.567-4.278,13.289-9.923c1.561-3.238,2.229-6.674,2.473-10.189
			c1.295-18.705,0.412-37.436,0.567-56.152c0.156-18.73,0.033-37.463,0.035-56.195c0.001-3.906,0.149-7.821-0.06-11.717
			c-0.252-4.716-0.467-9.469-1.971-14.014c-1.021-3.093-2.746-5.746-5.26-7.862C174.808,20.794,174.267,20.266,173.761,19.708z"/>
		<path fill="#C0C0C0" d="M24.315,179.587c0.189,0.007,0.379,0.015,0.568,0.021c1.903,1.525,3.742,3.115,6.1,3.98
			c2.663,0.979,5.378,1.611,8.206,1.799c18.468,1.223,36.957,0.371,55.435,0.527c18.488,0.156,36.98,0.023,55.471,0.044
			c2.778,0.003,5.532-0.245,8.293-0.489c1.678-0.148,3.36,0.021,5.049-0.305c3.457-0.667,6.736-1.721,9.627-3.791
			c1.121-0.424,1.914-1.199,2.422-2.279c0.281-0.568,0.68-1.049,1.119-1.498c2.105-3.408,3.102-7.156,3.229-11.113
			c1.271-39.808,0.268-79.626,0.539-119.44c0.025-3.746-0.46-7.493-0.579-11.249c-0.038-1.204-0.56-2.37-0.794-3.564
			c-0.043-0.146-0.085-0.297-0.132-0.443c-0.531-2.357-1.539-4.495-3.025-6.404c-0.53-0.734-1.493-1.079-1.813-2.005
			c-0.459-0.398-0.211-0.931-0.266-1.406c0.769-0.228,1.233,0.27,1.715,0.721c2.938,2.75,4.394,6.261,5.158,10.115
			c0.844,4.247,0.879,8.565,1.197,12.863c0.391,5.268,0.206,10.53,0.213,15.792c0.038,30.031,0.04,60.062-0.003,90.093
			c-0.008,4.922-0.272,9.838-0.708,14.756c-0.29,3.271-0.854,6.399-2.061,9.42c-1.838,4.602-5.004,7.912-9.715,9.601
			c-3.098,1.11-6.267,1.633-9.602,1.821c-19.041,1.078-38.091,0.296-57.134,0.453c-19.063,0.158-38.127,0.111-57.189-0.021
			c-4.566-0.032-9.19-0.288-13.627-1.672c-2.95-0.921-5.685-2.229-7.8-4.582c-0.443-0.494-0.937-0.983-0.454-1.726
			C23.941,179.6,24.129,179.594,24.315,179.587z"/>
		<path fill="#C7C7C7" d="M173.761,19.708c0.332-0.007,0.655,0.006,0.928,0.246c2.943,2.576,5.276,5.529,6.44,9.371
			c1.083,3.574,1.302,7.239,1.697,10.906c0.44,4.088,0.225,8.17,0.229,12.252c0.03,36.003,0.063,72.007-0.033,108.011
			c-0.014,5.033-0.445,10.121-2.057,14.955c-0.719,2.154-1.902,4.133-3.436,5.919c-4.411,5.146-10.242,6.757-16.666,6.976
			c-37.999,1.295-76.009,0.289-114.013,0.492c-5.851,0.031-11.809-0.211-17.428-2.412c-3.138-1.23-5.743-3.115-7.686-5.89
			c-0.206-0.294-0.251-0.599-0.243-0.931c0.376,0,0.752,0.002,1.128,0.002c0.85,0.811,1.548,1.758,2.396,2.576
			c2.581,2.485,5.829,3.59,9.193,4.289c4.6,0.954,9.288,1.176,13.984,1.174c34.781-0.004,69.563-0.002,104.345,0
			c2.348,0,4.669-0.342,7.002-0.49c1.818-0.116,3.641-0.047,5.445-0.42c6.375-1.318,11.463-4.346,14.188-10.557
			c0.814-0.828,0.964-1.885,1.015-2.977c0.664-2.749,1.22-5.512,1.188-8.357c-0.005-0.421,0.022-0.839,0.238-1.218
			c0.435-1.59,0.106-3.211,0.202-4.815c0.031-0.553-0.012-1.107,0.059-1.662c0.028-0.178,0.079-0.348,0.146-0.514
			c0.115-0.654,0.07-1.314,0.07-1.973c0.004-35.366,0.004-70.731,0.002-106.098c0-0.61,0.035-1.223-0.063-1.828
			c-0.068-0.159-0.113-0.327-0.144-0.497c-0.195-1.781,0.108-3.582-0.19-5.36c-0.05-0.152-0.081-0.308-0.104-0.466
			c-0.203-1.529,0.209-3.098-0.291-4.608c-0.23-0.787-0.398-1.589-0.582-2.388c0-0.899,0.031-1.804-0.336-2.656
			c-0.054-0.122-0.093-0.249-0.127-0.377c-0.167-0.805-0.291-1.628-0.863-2.281c-0.295-0.352-0.5-0.749-0.606-1.194
			c-0.16-0.737-0.456-1.4-1.046-1.901c-1.139-1.394-2.557-2.52-3.715-3.894C173.771,20.679,173.719,20.202,173.761,19.708z"/>
		<path fill="#D4D4D4" d="M173.758,16.599c-0.001-0.282-0.002-0.564-0.003-0.846c1.299-0.292,2.074,0.684,2.969,1.284
			c5.437,3.649,7.639,9.166,8.728,15.305c0.478,2.688,0.718,5.419,0.784,8.128c0.08,3.291,0.367,6.569,0.365,9.865
			c-0.026,35.819,0,71.638-0.041,107.456c-0.004,4.13-0.287,8.271-0.836,12.363c-0.567,4.248-1.615,8.422-3.959,12.094
			c-2.242,3.516-5.473,5.936-9.332,7.413c-3.744,1.435-7.664,1.968-11.682,2.274c-10.337,0.789-20.68,0.443-31.018,0.467
			c-27.063,0.063-54.127,0.086-81.19-0.028c-5.938-0.024-11.934-0.128-17.753-1.644c-5.105-1.328-9.457-3.869-12.503-8.316
			c-0.572-0.836-1.267-1.668-1.029-2.818c0.283,0.002,0.565,0.004,0.849,0.006c0.533,0.266,0.816,0.756,1.127,1.229
			c3.413,5.215,8.351,7.813,14.408,8.892c5.784,1.027,11.583,1.045,17.403,1.047c34.781,0.004,69.562,0.018,104.343-0.021
			c4.079-0.004,8.184-0.238,12.161-1.188c5.606-1.34,10.503-3.888,13.448-9.174c1.59-2.854,2.676-5.894,3.09-9.154
			c0.967-7.608,1.153-15.25,1.145-22.912c-0.043-32.475,0.002-64.949-0.041-97.424c-0.006-4.829-0.283-9.652-0.739-14.472
			c-0.363-3.83-1.134-7.494-2.636-11.029c-1.414-3.327-3.851-5.733-6.729-7.768C174.627,17.3,174.108,17.06,173.758,16.599z"/>
		<path fill="#C5C5C5" d="M174.032,21.116c1.703,0.809,2.689,2.391,3.955,3.673c0.457,0.613,0.654,1.375,1.131,1.978
			c0.047,0.447,0.199,0.841,0.564,1.13c0.371,0.817,0.582,1.689,0.848,2.542c0.438,0.892,0.313,1.896,0.564,2.825
			c0.151,0.762,0.143,1.565,0.564,2.26c0.299,1.186,0.056,2.394,0.142,3.587c0.036,0.5-0.138,1.021,0.142,1.498
			c0.301,1.375,0.052,2.768,0.143,4.15c0.032,0.5-0.139,1.022,0.141,1.5c0.26,0.489,0.131,1.017,0.133,1.524
			c0.007,35.896,0.007,71.791,0,107.685c-0.002,0.509,0.127,1.036-0.133,1.525c-0.315,1.655-0.055,3.33-0.148,4.993
			c-0.034,0.597,0.145,1.209-0.133,1.785c-0.092,0.265-0.278,0.535-0.256,0.789c0.271,3.027-0.635,5.896-1.158,8.815
			c-0.215,0.962-0.424,1.926-0.848,2.825c-1.098,1.79-2.043,3.676-3.436,5.279c-2.694,3.106-6.377,4.373-10.146,5.432
			c-3.049,0.857-6.227,0.777-9.343,0.836c-37.292,0.706-74.589,0.141-111.883,0.295c-1.576,0.006-3.164-0.521-4.729-0.443
			c-2.762,0.137-5.343-0.604-7.957-1.229c-3.753-0.896-6.928-2.746-9.319-5.836c-0.221-0.285-0.252-0.597-0.247-0.929
			c0.377,0,0.754,0,1.132,0c-0.022,0.391,0.042,0.746,0.343,1.033c1.629,1.561,3.337,2.93,5.449,3.896
			c3.987,1.823,8.227,1.959,12.449,2.438c3.525,0.398,7.042,0.226,10.561,0.229c32.905,0.027,65.812,0.016,98.717,0.02
			c2.767,0,5.512-0.354,8.265-0.486c2.007-0.098,3.979-0.19,5.95-0.618c6.934-1.509,11.816-5.212,14.041-12.235
			c0.962-3.037,1.277-6.099,1.556-9.199c0.755-8.437,0.572-16.896,0.573-25.351c0.005-30.175,0.037-60.35-0.036-90.525
			c-0.011-4.532-0.341-9.085-0.882-13.586c-0.438-3.631-1.542-7.173-3.686-10.228c-0.851-1.212-1.884-2.355-3.293-3.02
			C173.759,21.656,173.706,21.326,174.032,21.116z"/>
		<path fill="#D8D8D8" d="M17.258,179.596c3.115,6.615,8.619,9.742,15.574,11.084c4.088,0.788,8.181,0.826,12.286,1.122
			c4.187,0.302,8.36,0.196,12.537,0.2c31.445,0.033,62.89,0.08,94.334-0.035c6.203-0.021,12.508-0.098,18.498-1.996
			c5.996-1.9,10.593-5.607,12.878-11.707c1.407-3.756,2.012-7.641,2.317-11.654c0.484-6.381,0.493-12.758,0.494-19.141
			c0.006-33.375,0.07-66.75-0.062-100.124c-0.022-5.917-0.191-11.888-1.609-17.721c-0.881-3.62-2.338-6.966-4.84-9.705
			c-1.627-1.781-3.508-3.396-5.912-4.167c0.103-0.272,0.293-0.458,0.562-0.568c1.545,0.743,2.828,1.877,4.236,2.825
			c0.762,0.557,1.422,1.216,1.979,1.978c1.408,1.613,2.255,3.582,3.39,5.367c1.084,2.53,1.345,5.267,1.978,7.91l0,0
			c0.219,2.163,0.336,4.335,0.565,6.497c0.296,1.611,0.052,3.238,0.144,4.855c0.029,0.548-0.146,1.116,0.14,1.642
			c0.261,0.489,0.132,1.017,0.132,1.524c0.008,36.37,0.036,72.739-0.039,109.11c-0.008,3.728-0.162,7.48-0.747,11.199
			c-0.229,1.455-0.114,2.977-0.476,4.438c-0.528,1.168-0.579,2.445-0.848,3.673c-0.267,0.946-0.598,1.873-0.849,2.823
			c-0.511,0.554-0.862,1.187-1.157,1.887c-1.941,4.6-5.703,7.225-10.091,9.105c-1.188,0.51-2.479,0.776-3.724,1.155
			c-0.836,0.243-1.711,0.306-2.542,0.565c-0.437,0.266-0.917,0.312-1.412,0.281c-2.368,0.133-4.72,0.508-7.103,0.433
			c-0.549-0.019-1.125-0.153-1.656,0.133c-1.01,0.38-2.098-0.11-3.106,0.282c-0.094,0-0.188,0-0.282,0
			c-0.533-0.279-1.109-0.137-1.662-0.137c-35.521-0.008-71.04-0.008-106.559-0.015c-0.555-0.001-1.129,0.138-1.666-0.132
			c-1.583-0.396-3.219,0.102-4.803-0.282c-1.009-0.393-2.098,0.099-3.107-0.282c-1.396-0.357-2.821-0.582-4.237-0.848
			c-1.299-0.132-2.49-0.615-3.672-1.13c-0.646-0.59-1.572-0.621-2.26-1.131c-0.602-0.063-0.993-0.479-1.412-0.847
			c-0.633-0.51-1.335-0.92-1.978-1.414c-0.664-0.465-1.229-1.03-1.695-1.693c-1.423-1.232-2.398-2.79-3.211-4.462
			C16.233,179.773,16.604,179.574,17.258,179.596z"/>
		<path fill="#D1D1D1" d="M173.76,18.012c-0.001-0.283-0.001-0.566-0.001-0.849c0.745-0.319,1.271,0.192,1.774,0.552
			c3.887,2.777,6.477,6.444,7.772,11.078c1.293,4.615,1.658,9.322,1.739,14.07c0.653,38.221,0.146,76.444,0.241,114.667
			c0.013,5.242-0.166,10.557-1.32,15.684c-1.808,8.033-6.318,13.785-14.676,16.029c-4.221,1.135-8.505,1.568-12.811,1.613
			c-36.623,0.377-73.25,0.121-109.875,0.135c-5.956,0.003-11.959-0.256-17.669-2.266c-4.05-1.426-7.384-3.894-9.701-7.593
			c-0.292-0.467-0.711-0.925-0.286-1.532c0.19,0.002,0.381,0.002,0.57,0.002c1.312,1.148,2.067,2.744,3.335,3.963
			c3.26,3.139,7.228,4.64,11.558,5.334c9.455,1.516,18.995,1.131,28.514,1.138c29.604,0.019,59.209,0.085,88.813-0.065
			c5.162-0.025,10.402-0.131,15.496-1.346c5.464-1.305,10.045-3.928,12.971-8.924c1.783-3.045,2.676-6.385,3.137-9.852
			c0.395-2.973,0.545-5.959,0.594-8.961c0.625-37.688,0.145-75.375,0.201-113.063c0.01-5.491-0.096-11.044-1.354-16.474
			c-1.172-5.054-3.459-9.393-7.703-12.545C174.667,18.5,174.123,18.406,173.76,18.012z"/>
		<path fill="#CDCDCD" d="M173.76,18.012c2.082,0.507,3.41,2.056,4.712,3.56c4.014,4.631,5.229,10.282,5.424,16.163
			c1.314,39.786,0.31,79.583,0.521,119.376c0.029,5.443-0.052,10.981-1.385,16.332c-1.844,7.396-6.114,12.699-13.678,14.879
			c-3.246,0.936-6.576,1.248-9.957,1.52c-7.229,0.58-14.453,0.469-21.681,0.475c-30.073,0.021-60.146,0.074-90.22-0.049
			c-5.684-0.022-11.444-0.233-16.958-1.94c-4.764-1.474-8.7-4.106-11.02-8.726c0.282,0,0.563,0.002,0.846,0.002
			c2.335,4.787,6.582,7.025,11.4,8.42c3.799,1.099,7.733,1.367,11.662,1.44c36.092,0.673,72.188,0.185,108.281,0.218
			c5.156,0.006,10.414-0.082,15.49-1.35c5.31-1.324,9.857-3.838,12.707-8.793c1.49-2.596,2.378-5.369,2.896-8.305
			c0.695-3.942,0.726-7.916,0.863-11.897c0.578-16.604,0.159-33.212,0.231-49.817c0.09-20.523,0.09-41.048-0.039-61.572
			c-0.023-3.816-0.224-7.658-0.643-11.487c-0.453-4.148-1.287-8.152-3.303-11.77c-1.426-2.558-3.352-4.833-6.154-6.112
			C173.76,18.39,173.76,18.201,173.76,18.012z"/>
		<path fill="#D2D2D2" d="M18.95,179.602c0.053,1.502,1.126,2.494,1.996,3.463c3.204,3.574,7.228,5.586,12.001,6.47
			c9.125,1.688,18.319,1.332,27.503,1.343c30.736,0.038,61.474,0.096,92.209-0.057c5.813-0.028,11.706-0.229,17.369-2.022
			c6.4-2.024,10.664-6.162,12.809-12.551c1.01-3.004,1.436-6.063,1.684-9.211c0.901-11.361,0.482-22.736,0.508-34.104
			c0.066-28.336,0.097-56.672-0.039-85.008c-0.027-5.779-0.02-11.62-1.366-17.327c-1.242-5.266-3.813-9.653-8.322-12.774
			c-0.45-0.313-1.024-0.444-1.542-0.659c0-0.188,0-0.376-0.001-0.564c2.237,0.622,3.798,2.246,5.265,3.852
			c4.021,4.4,5.178,9.873,5.789,15.62c1.045,9.839,0.783,19.699,0.793,29.555c0.031,30.645,0.057,61.291-0.029,91.936
			c-0.016,5.369-0.309,10.803-1.485,16.043c-1.456,6.487-4.831,11.805-11.235,14.619c-2.883,1.268-5.944,1.885-9.043,2.397
			c-2.508,0.417-5.056,0.493-7.558,0.498c-37.471,0.077-74.941,0.079-112.412,0.021c-4.531-0.007-9.081-0.43-13.465-1.703
			c-5.419-1.576-9.684-4.684-12.269-9.836C18.388,179.6,18.669,179.6,18.95,179.602z"/>
		<path fill="#D8D8D8" d="M185.615,172.529c0.366-4.846,0.735-9.689,1.095-14.533c0.038-0.516,0.034-1.034,0.034-1.551
			c0.001-36.729,0.001-73.458,0.001-110.188c0.455,0.419,0.275,0.971,0.275,1.466c0.008,36.975,0.043,73.95-0.041,110.925
			c-0.01,4.424-0.459,8.863-1.092,13.264C185.856,172.126,185.709,172.323,185.615,172.529z"/>
		<path fill="#D9D9D9" d="M42.96,192.585c36.046,0,72.092-0.001,108.139,0.011c0.584,0,1.231-0.229,1.748,0.271
			c-36.046,0-72.092,0.002-108.138-0.01C44.125,192.857,43.478,193.087,42.96,192.585z"/>
		<path fill="#D8D8D8" d="M185.897,33.263c-0.66-2.637-1.318-5.273-1.979-7.91c1.141,1.729,1.271,3.759,1.676,5.702
			C185.744,31.778,186.021,32.498,185.897,33.263z"/>
		<path fill="#D9D9D9" d="M156.235,192.585c0.197-0.247,0.474-0.298,0.761-0.278c2.677,0.189,5.323-0.426,7.998-0.287
			c-1.617,0.487-3.304,0.365-4.955,0.539C158.784,192.691,157.505,192.585,156.235,192.585z"/>
		<path fill="#D8D8D8" d="M186.463,39.76c-0.507-2.138-0.577-4.314-0.565-6.497C186.403,35.401,186.476,37.577,186.463,39.76z"/>
		<path fill="#D8D8D8" d="M186.745,46.257c-0.59-1.242-0.174-2.558-0.27-3.837c-0.066-0.882-0.014-1.773-0.014-2.66
			c0.592,1.242,0.174,2.558,0.27,3.837C186.799,44.479,186.745,45.37,186.745,46.257z"/>
		<path fill="#D9D9D9" d="M30.813,191.173c1.472-0.013,2.89,0.245,4.237,0.847C33.595,191.955,32.179,191.688,30.813,191.173z"/>
		<path fill="#D9D9D9" d="M38.157,192.303c1.598,0.157,3.232-0.334,4.803,0.282C41.363,192.428,39.728,192.92,38.157,192.303z"/>
		<path fill="#D8D8D8" d="M180.53,19.986c-0.772-0.546-1.432-1.205-1.979-1.978C179.54,18.34,180.199,19,180.53,19.986z"/>
		<path fill="#D8D8D8" d="M183.92,179.025c0-1.026,0.329-1.955,0.849-2.824C184.769,177.229,184.438,178.154,183.92,179.025z"/>
		<path fill="#D9D9D9" d="M19.796,184.958c0.677,0.453,1.242,1.019,1.695,1.694C20.599,186.415,20.034,185.85,19.796,184.958z"/>
		<path fill="#D9D9D9" d="M21.491,186.652c0.816,0.25,1.516,0.666,1.978,1.412C22.651,187.814,21.952,187.4,21.491,186.652z"/>
		<path fill="#D9D9D9" d="M24.881,188.912c0.812,0.262,1.74,0.287,2.26,1.131C26.355,189.729,25.438,189.68,24.881,188.912z"/>
		<path fill="#D9D9D9" d="M153.129,192.867c0.99-0.598,2.076-0.137,3.106-0.282C155.247,193.184,154.16,192.723,153.129,192.867z"/>
		<path fill="#D9D9D9" d="M35.05,192.02c1.031,0.146,2.118-0.314,3.107,0.283C37.126,192.157,36.04,192.619,35.05,192.02z"/>
		<path fill="#D9D9D9" d="M166.406,191.738c0.782-0.479,1.647-0.584,2.542-0.565C168.165,191.65,167.3,191.756,166.406,191.738z"/>
		<path fill="#B7B7B7" d="M27.712,179.607c0.659,0,1.317,0,1.976,0c0.349,0.957,1.268,1.213,2.052,1.558
			c2.856,1.256,5.86,1.999,8.979,2.087c23.8,0.671,47.604,0.148,71.407,0.279c14.118,0.078,28.238,0.084,42.355-0.029
			c4.188-0.033,8.41-0.247,12.433-1.76c4.194-1.576,7.142-4.391,8.746-8.569c1.133-2.948,1.71-6.021,1.762-9.181
			c0.656-40.227,0.13-80.456,0.238-120.683c0.01-3.858-0.22-7.78-1.622-11.482c-0.516-1.359-1.063-2.712-2.275-3.643
			c0.002-0.661,0.002-1.322,0.002-1.983c0.842-0.362,1.195,0.279,1.572,0.798c1.434,1.976,2.1,4.273,2.805,6.572
			c0.803,2.614,0.424,5.317,0.808,7.962c0.61,4.206,0.276,8.453,0.278,12.682c0.024,34.084,0.02,68.169,0.01,102.254
			c-0.002,4.836-0.163,9.697-1.193,14.417c-1.554,7.117-6.094,11.511-13.335,13.103c-3.146,0.691-6.319,0.574-9.476,0.875
			c-3.953,0.378-7.896,0.214-11.842,0.217c-32.06,0.029-64.12,0.055-96.181-0.028c-4.15-0.012-8.354-0.146-12.428-1.174
			c-2.135-0.539-4.256-1.202-6.04-2.599C28.193,180.85,27.523,180.493,27.712,179.607z"/>
		<path fill="#A9A9A9" d="M173.741,171.682c0-45.149,0-90.299,0-135.448c0-1.177,0.012-2.354,0.019-3.53
			c1.392,1.307,1.273,3.148,1.662,4.797c0.554,2.339,0.532,4.768,0.536,7.128c0.074,38.086,0.08,76.174,0.011,114.26
			c-0.007,3.816-0.222,7.682-1.425,11.381C174.378,170.777,174.384,171.426,173.741,171.682z"/>
		<path fill="#A9A9A9" d="M33.93,179.607c4.33-0.008,8.661-0.025,12.992-0.025c39.544,0.004,79.088,0.011,118.632,0.018
			c-1.576,1.543-3.646,1.592-5.617,1.662c-37.08,1.313-74.171,0.268-111.256,0.551c-4.194,0.033-8.42-0.176-12.55-1.113
			C35.328,180.516,34.437,180.426,33.93,179.607z"/>
		<path fill="#BDBDBD" d="M173.751,181.568c-1.7,0.766-3.102,2.067-4.932,2.621c-3.03,0.914-6.014,1.938-9.273,1.651
			c-1.339-0.116-2.719,0.14-4.047,0.313c-1.836,0.24-3.654,0.205-5.479,0.205c-34.631,0.013-69.263,0.056-103.893-0.043
			c-4.834-0.014-9.729-0.319-14.379-1.963c-2.218-0.785-4.347-1.768-6.023-3.5c-0.352-0.363-0.833-0.649-0.843-1.248
			c0.471,0,0.942,0,1.414,0.002c2.314,1.693,4.654,3.277,7.525,3.992c2.933,0.73,5.892,1.146,8.891,1.201
			c36.559,0.672,73.12,0.184,109.681,0.219c4.875,0.006,9.875-0.035,14.616-1.672c5.324-1.838,8.951-5.332,10.55-10.836
			c0.92-3.171,1.369-6.412,1.397-9.686c0.353-39.438,0.119-78.875,0.097-118.312c-0.003-4.548,0.006-9.203-1.734-13.599
			c-0.857-2.169-1.869-4.201-3.559-5.844c-0.027-0.584-0.059-1.168,0.268-1.697c0.691,0.528,1.445,0.984,1.981,1.694
			c1.291,2.044,2.384,4.183,3.107,6.498c1.172,4.1,1.183,8.323,1.258,12.529c0.669,37.32,0.172,74.643,0.216,111.965
			c0.006,4.791-0.009,9.651-1.027,14.42c-0.588,2.748-1.571,5.293-2.987,7.694c-0.283,0.377-0.565,0.755-0.849,1.132
			C175.185,180.162,174.286,180.707,173.751,181.568z"/>
		<path fill="#B8B8B8" d="M173.763,25.073c0.648-0.067,1.035,0.284,1.379,0.789c2.547,3.745,3.908,7.862,3.979,12.405
			c0.646,41.558,0.127,83.117,0.24,124.674c0.013,4.494-0.654,8.98-2.729,13.07c-1.271,2.506-3.189,4.521-5.645,5.938
			c-3.793,2.188-7.932,2.892-12.278,3.036c-37.164,1.246-74.338,0.231-111.506,0.475c-5.069,0.032-10.233-0.254-15.106-1.973
			c-2.209-0.778-4.494-1.652-5.799-3.881c0.471,0,0.942,0,1.414,0c0.66,1.392,2.09,1.938,3.277,2.523
			c2.258,1.115,4.763,1.697,7.278,1.959c7.521,0.785,15.073,0.584,22.617,0.584c30.081,0.004,60.162,0,90.243,0.004
			c2.345,0,4.692-0.554,6.991-0.4c2.222,0.146,4.256-0.364,6.355-0.727c6.139-1.057,10.889-5.047,12.658-11.021
			c1.03-3.473,1.365-7.047,1.426-10.659c0.644-39.013,0.159-78.028,0.188-117.042c0.003-4.613-0.049-9.388-1.85-13.844
			c-0.563-1.395-1.155-2.765-2.041-3.993c-0.283-0.392-0.556-0.766-1.095-0.788C173.763,25.826,173.763,25.45,173.763,25.073z"/>
		<path fill="#BFBFBF" d="M176.576,178.178c0.558-1.893,1.862-3.469,2.252-5.441c0.47-2.383,1.084-4.719,1.161-7.186
			c1.228-39.4,0.281-78.812,0.445-118.217c0.02-4.903,0.076-9.937-1.283-14.782c-0.086-0.307-0.025-0.655-0.033-0.984
			c0.587,1.524,1.064,3.095,1.115,4.725c1.269,39.831,0.307,79.673,0.513,119.509c0.026,5.12,0.034,10.323-1.11,15.378
			C179.069,173.676,178.33,176.168,176.576,178.178z"/>
		<path fill="#BFBFBF" d="M179.118,31.568c-1.036-2.166-2.071-4.332-3.107-6.498C177.599,26.973,178.67,29.121,179.118,31.568z"/>
		<path fill="#BFBFBF" d="M173.751,181.568c0.3-1.068,1.209-1.604,1.979-2.26C175.429,180.376,174.521,180.91,173.751,181.568z"/>
		<path fill="#C6C6C6" d="M182.226,156.992c0-36.912,0-73.823,0-110.735c0.455,0.419,0.274,0.971,0.274,1.466
			c0.009,35.934,0.009,71.868,0,107.802C182.5,156.021,182.681,156.572,182.226,156.992z"/>
		<path fill="#C6C6C6" d="M181.942,163.771c0-1.821-0.008-3.644,0.007-5.465c0.003-0.449-0.146-0.947,0.276-1.314
			c0,1.82,0.008,3.643-0.007,5.464C182.216,162.906,182.364,163.402,181.942,163.771z"/>
		<path fill="#C6C6C6" d="M182.226,46.257c-0.641-1.856-0.106-3.771-0.281-5.649C182.584,42.463,182.051,44.378,182.226,46.257z"/>
		<path fill="#C6C6C6" d="M181.942,40.608c-0.623-1.666-0.123-3.394-0.282-5.085C182.283,37.188,181.784,38.917,181.942,40.608z"/>
		<path fill="#C6C6C6" d="M179.683,176.201c0.123-0.99,0.45-1.918,0.849-2.825C180.556,174.41,180.403,175.391,179.683,176.201z"/>
		<path fill="#C6C6C6" d="M181.097,33.263c-0.418-0.896-0.468-1.865-0.566-2.825C181.226,31.279,181.084,32.286,181.097,33.263z"/>
		<path fill="#C6C6C6" d="M180.53,30.438c-0.504-0.774-0.752-1.633-0.848-2.542C180.337,28.62,180.517,29.501,180.53,30.438z"/>
		<path fill="#C6C6C6" d="M179.118,26.766c-0.711-0.468-0.928-1.22-1.131-1.978C178.699,25.257,178.914,26.008,179.118,26.766z"/>
	</g>
</g>
<g>
	<path fill="#333333" d="M-179.41,118.15l-34.727,125.393h-15.91l-30.108-108.971l-30.194,108.971h-15.91L-340.9,118.15h17.449
		l25.062,102.127l28.227-102.127h19.93l28.227,102.127l25.062-102.127H-179.41z"/>
</g>
<text transform="matrix(1 0 0 1 -298.5396 59.0435)" fill="#333333" font-family="'MicrosoftSansSerif'" font-size="175.175">Y</text>
<g>
	<path fill="#333333" d="M149.097,156.221h-20.357l-37.122-53.117l-37.293,53.117H33.967l48.156-66.032L38.757,30.828h20.271
		l32.417,46.359l32.589-46.359h20.271L100.77,90.188L149.097,156.221z"/>
</g>
<text transform="matrix(1 0 0 1 -407.2026 18.0127)" fill="#333333" font-family="'MicrosoftSansSerif'" font-size="175.175">Z</text>
</svg>
