<?xml version="1.0" encoding="utf-8"?>
<!-- Generator: Adobe Illustrator 16.0.0, SVG Export Plug-In . SVG Version: 6.00 Build 0)  -->
<!DOCTYPE svg PUBLIC "-//W3C//DTD SVG 1.1//EN" "http://www.w3.org/Graphics/SVG/1.1/DTD/svg11.dtd">
<svg version="1.1" id="Layer_1" xmlns="http://www.w3.org/2000/svg" xmlns:xlink="http://www.w3.org/1999/xlink" x="0px" y="0px"
	 width="200.041px" height="200.043px" viewBox="0 0 200.041 200.043" enable-background="new 0 0 200.041 200.043"
	 xml:space="preserve">
<g>
	<g>
		<path fill="#F7F7F7" d="M31.208,0.02c44.916,0,89.831,0,134.745,0c0.278,0.197,0.597,0.256,0.933,0.279
			c4.782,0.322,9.442,1.319,13.688,3.525c4.242,2.206,8.518,4.557,11.1,8.86c2.876,4.792,5.166,9.828,5.773,15.48
			c0.703,6.5,1.221,12.995,1.203,19.555c-0.086,39.301-0.045,78.604-0.033,117.905c0,1.706-0.205,3.366-0.541,5.037
			c-0.539,2.676-0.324,5.438-0.858,8.125c-1.084,5.459-2.729,10.573-6.688,14.813c-2.313,2.475-4.832,4.565-7.614,6.42
			c-1.506,0-3.017,0-4.521,0c-0.064-0.946,0.67-1.326,1.313-1.646c1.855-0.928,3.554-2.121,5.348-3.15
			c0.497-0.285,0.924-0.631,1.316-1.043c4.646-4.839,7.348-10.729,8.525-17.19c0.801-4.366,1.172-8.854,1.037-13.345
			c-0.037-1.27,0.092-2.537,0.092-3.811c-0.01-38.361-0.018-76.726,0.004-115.089c0.004-5.319-0.254-10.631-0.979-15.884
			c-0.688-4.98-2.601-9.531-5.374-13.82c-3.354-5.177-8.259-8.026-13.72-10.097c-3.513-1.333-7.271-1.917-11.039-2.199
			c-5.349-0.4-10.699-0.586-16.063-0.583C113.817,2.179,78.798,2.144,43.777,2.196c-6.218,0.009-12.39,0.819-18.489,2.009
			c-2.496,0.487-4.828,1.567-6.963,3.001c-0.315,0.212-0.616,0.433-0.726,0.823c-0.257,0.595-0.774,0.78-1.36,0.83
			c-1.535,0.131-2.911,0.68-4.164,1.558c-1.328,0.745-1.976,1.95-2.275,3.389c-0.223,0.707-0.152,1.487-0.532,2.157
			c-0.16,0.203-0.363,0.343-0.605,0.432c-0.722,0.305-1.035,0.964-1.276,1.617c-1.581,4.277-3.419,8.499-3.777,13.111
			c-0.291,3.743-0.762,7.485-0.482,11.255c0.039,0.516,0.025,1.035,0.025,1.553c0,40.423,0.002,80.846-0.013,121.269
			c-0.001,0.998,0.293,2.103-0.628,2.918c-1.264-0.185-1.984-0.87-2.191-2.13c-0.13-0.793-0.075-1.598-0.075-2.397
			C0.243,123.297,0.243,83.003,0.242,42.71c0-1.129,0.034-2.26-0.127-3.384c-0.04-0.28-0.107-0.588-0.004-0.841
			c1.255-3.078,0.617-6.406,1.306-9.58c0.806-3.717,1.468-7.439,3.065-10.939c0.97-2.125,2.384-3.929,3.755-5.766
			c0.532-0.713,0.923-1.561,1.581-2.148c3.764-3.357,7.769-6.358,12.713-7.77c2.605-0.744,5.213-1.507,7.896-1.949
			C30.707,0.287,30.973,0.186,31.208,0.02z"/>
		<path fill="#F4F4F4" d="M17.366,8.212c-0.408-0.505-0.558-0.854,0.224-1.262c2.193-1.146,4.371-2.337,6.75-3.039
			c2.106-0.621,4.313-0.762,6.483-1.08c3.425-0.501,6.872-0.743,10.313-1.067c0.467-0.044,0.939-0.047,1.409-0.047
			C80.11,1.715,117.676,1.675,155.24,1.763c4.944,0.011,9.934,0.228,14.821,1.135c4.771,0.886,9.229,2.607,13.377,5.232
			c2.07,1.313,3.871,2.905,5.306,4.756c3.336,4.303,5.637,9.198,6.534,14.593c0.621,3.725,1.125,7.522,1.135,11.288
			c0.079,40.743,0.04,81.487,0.059,122.23c0.002,5.569-0.166,11.16-1.24,16.599c-0.885,4.471-2.291,8.957-5.14,12.666
			c-1.235,1.608-2.21,3.569-3.854,4.729c-1.5,1.057-3.053,2.137-4.752,2.931c-1.143,0.532-2.342,1.001-3.104,2.104
			c-2.07,0-4.146,0-6.215,0c-0.005-0.943,0.813-1.075,1.417-1.34c2.151-0.936,4.374-1.688,6.456-2.824
			c4.592-2.504,7.939-6.068,10.092-10.844c1.305-2.891,2.373-5.826,2.936-8.957c0.498-2.783,0.676-5.604,0.918-8.401
			c0.563-6.479,0.318-12.979,0.32-19.472c0.012-35.021,0.041-70.042-0.027-105.063c-0.014-6.354-0.428-12.762-2.353-18.849
			c-2.604-8.235-7.813-14.271-16.219-17.151c-1.604-0.549-3.224-1.046-4.854-1.499c-3.938-1.089-8.002-1.027-12.011-1.511
			c-2.985-0.361-5.896,0.323-8.851,0.322C116.203,4.428,82.406,4.43,48.611,4.433c-1.226,0-2.451,0.01-3.658-0.23
			c-3.446-0.688-6.86,0.045-10.249,0.399c-3.111,0.325-6.246,0.764-9.273,1.727c-1.803,0.573-3.54,1.253-5.212,2.125
			C19.241,8.682,18.266,8.897,17.366,8.212z"/>
		<path fill="#EDEDED" d="M163.412,200.02c-44.353,0-88.701,0-133.052,0c-2.611-0.153-5.016-1.101-7.424-1.996
			c-6.007-2.25-10.492-6.146-13.586-11.854c-2.701-4.98-3.56-10.344-4.316-15.813c-0.417-3.013-0.568-5.978-0.047-8.975
			c0.12-0.691,0.058-1.406,0.058-2.111C5.046,121.296,5.053,83.33,5.032,45.354c-0.002-2.81-0.244-5.61-0.029-8.44
			c0.329-4.325,0.796-8.611,2.009-12.786c0.267-0.919,0.479-2.009,1.862-1.874c0.311,0.251,0.373,0.605,0.403,0.973
			c-0.048,1.897,0.197,3.803-0.152,5.693c-0.664,1.237-0.743,2.598-0.875,3.957c-1.029,10.653-0.523,21.333-0.547,32
			c-0.066,30.903,0.002,61.807-0.044,92.709c-0.01,6.398-0.007,12.781,1.348,19.076c0.073,2.354,0.97,4.488,1.863,6.605
			c2.547,6.022,7.259,9.723,13.14,12.209c3.075,1.301,6.256,1.904,9.553,2.213c1.722,0.158,3.449,0.395,5.157,0.654
			c1.935,0.295,3.831-0.063,5.745,0.014c0.812,0.031,1.675-0.148,2.519-0.148c34.972-0.004,69.943-0.002,104.916-0.006
			c1.928,0,3.828,0.367,5.77,0.305c2.441-0.078,4.854-0.354,7.27-0.75c2.64-0.432,5.287-0.712,7.867-1.479
			c3.854-1.146,7.199-3.063,10.188-5.766c4.03-3.646,5.854-8.382,7.229-13.427c1.416-5.179,1.594-10.476,1.598-15.774
			c0.021-40.147,0.023-80.296-0.006-120.445c-0.008-5.753-0.729-11.433-2.729-16.871c-1.825-4.971-4.729-9.156-9.254-12.083
			c-0.61-0.396-1.084-0.84-0.362-1.555c0.869-0.376,1.557,0.082,2.221,0.525c2.715,1.813,4.834,4.252,6.473,6.993
			c3.271,5.458,4.968,11.416,5.104,17.824c0.617,28.415,0.117,56.832,0.26,85.247c0.066,13.738,0.018,27.479,0.01,41.219
			c-0.002,5.184-0.174,10.366-1.451,15.41c-1.801,7.087-5.102,13.258-11.538,17.251c-3.601,2.229-7.554,3.545-11.729,4.245
			C167.002,199.372,165.146,199.361,163.412,200.02z"/>
		<path fill="#F0F0F0" d="M163.412,200.02c0.373-0.646,0.989-0.77,1.672-0.854c3.574-0.479,7.172-0.985,10.524-2.34
			c4.963-2.002,9.295-5.019,12.047-9.689c2.703-4.586,4.375-9.563,4.896-14.967c0.854-8.826,0.479-17.658,0.492-26.485
			c0.063-35.307,0.063-70.609-0.016-105.917c-0.012-5.469-0.454-10.962-2.521-16.126c-1.54-3.846-3.563-7.477-6.591-10.346
			c-1.229-1.166-2.432-2.695-4.408-2.816c-0.479,0.299-0.922,0.087-1.33-0.139c-4.813-2.668-10.096-3.348-15.455-3.991
			c-3.396-0.408-6.734-0.233-10.111-0.229C116.136,6.16,79.661,6.193,43.186,6.087c-5.169-0.017-10.2,0.586-15.235,1.55
			c-0.753,0.145-1.44,0.411-2.08,0.823c-1.906,0.226-3.821,0.628-5.679-0.249c0.384-0.681,1.11-0.83,1.747-1.101
			c4.837-2.06,9.956-2.759,15.144-3.146c1.348-0.101,2.692-0.294,4.026-0.515c1.383-0.229,2.712,0.185,4.052,0.323
			c1.028,0.106,2.049,0.201,3.078,0.201c34.175,0.004,68.35,0.003,102.524,0.003c0.893,0,1.771,0.004,2.65-0.25
			c2.415-0.696,4.838,0.075,7.261,0.072c2.269-0.003,4.532,0.337,6.784,0.57c2.021,0.209,3.995,0.954,5.979,1.507
			c3.406,0.952,6.67,2.249,9.451,4.494c1.961,1.583,3.825,3.252,5.276,5.39c1.11,1.638,2.051,3.328,2.938,5.091
			c1.787,3.556,2.342,7.391,2.801,11.24c1.643,13.725,0.765,27.511,0.824,41.269c0.135,28.903,0.047,57.805,0.031,86.708
			c-0.002,3.793-0.367,7.563-0.73,11.347c-0.313,3.278-0.693,6.513-1.769,9.612c-1.557,4.521-3.616,8.77-7.307,11.994
			c-1.485,1.306-3.146,2.336-4.856,3.332c-2.365,1.375-4.992,2.063-7.443,3.188c-0.19,0.09-0.324,0.315-0.479,0.481
			C169.25,200.02,166.331,200.02,163.412,200.02z"/>
		<path fill="#F4F4F4" d="M8.892,22.337c-0.861,0.089-1.181,0.75-1.363,1.433c-1.16,4.35-2.007,8.767-2.01,13.275
			C5.49,78.108,5.508,119.17,5.481,160.232c-0.001,1.662-0.265,3.332-0.492,4.981c-0.257,1.862,0.36,3.634,0.585,5.429
			c0.422,3.373,0.666,6.803,1.888,10.036c1.429,3.778,3.135,7.354,5.884,10.445c3.171,3.563,7.149,5.642,11.536,7.104
			c1.539,0.515,2.982,1.441,4.722,1.25c0.357-0.041,0.601,0.226,0.758,0.539c-3.86,0-7.721,0-11.581,0
			c-2.435-1.142-4.742-2.449-6.455-4.604c-0.32-0.399-0.7-0.767-1.092-1.101c-2.667-2.271-4.358-5.262-5.751-8.364
			c-2.146-4.785-3.346-9.831-3.183-15.123c0.028-0.908-0.561-1.849,0.096-2.729c0.313-0.512,0.284-1.076,0.284-1.645
			c-0.003-41.253,0.023-82.512-0.036-123.77c-0.008-4.913,0.066-9.815,0.948-14.63C4.265,24.372,5.717,20.874,7.13,17.4
			c0.124-0.304,0.312-0.583,0.431-0.888c0.281-0.72,0.742-0.758,1.331-0.389C9.536,18.194,9.537,20.266,8.892,22.337z"/>
		<path fill="#F8F8F8" d="M182.901,200.02c0.168-1.104,1.129-1.521,1.923-1.897c1.313-0.633,2.344-1.563,3.282-2.613
			c2.336-2.604,4.935-4.995,6.229-8.409c1.266-3.336,2.206-6.718,2.727-10.263c1.406-9.612,1.09-19.276,1.094-28.937
			c0.014-35.899,0.016-71.8-0.008-107.7c-0.002-3.604-0.813-7.143-1.051-10.732c-0.152-2.346-0.615-4.638-1.269-6.884
			c-0.8-2.761-2.206-5.268-3.446-7.846c-0.822-1.712-2.195-3.004-3.199-4.575c-1.021-1.603-2.83-2.3-4.324-3.301
			c-2.271-1.523-4.635-2.945-7.262-3.902c-1.594-0.581-3.222-0.861-4.842-1.243c-2.088-0.492-4.136-1.187-6.313-1.23
			c-0.166-0.003-0.324-0.304-0.482-0.466c4.708,0,9.416,0,14.123,0c0.947,1.18,2.507,1.195,3.703,1.919
			c2.488,1.5,4.843,3.109,6.986,5.12c3.104,2.907,5.129,6.424,6.541,10.306c0.858,2.364,1.646,4.778,2.258,7.231
			c0,52.73,0,105.461,0,158.192c-0.854,1.834-1.125,3.878-1.998,5.704c-0.977,2.034-2.146,3.948-3.463,5.792
			c-1.067,1.501-2.185,2.871-3.883,3.723c-0.84,0.422-1.324,1.318-1.955,2.014C186.481,200.02,184.692,200.02,182.901,200.02z"/>
		<path fill="#F8F8F8" d="M2.395,168.1c0.406,3.619,0.146,7.316,1.148,10.86c1.114,3.94,2.407,7.733,4.773,11.251
			c1.55,2.305,3.698,3.91,5.304,6.074c0.713,0.961,1.941,1.6,3.039,2.195c0.79,0.431,1.512,0.889,2.12,1.539
			c-2.637,0-5.273,0-7.91,0c-1.55-1.688-3.191-3.282-4.66-5.041c-0.39-0.467-0.665-1.049-1.125-1.438
			c-2.438-2.039-3.136-5.021-4.215-7.771c-0.457-1.17-0.812-2.383-1.299-3.547c0-48.115,0-96.232,0-144.354
			c0.455-0.738,0.695-1.56,0.708-2.409c0.073-4.971,1.142-9.772,2.439-14.533c0.472-1.728,1.115-3.389,2.16-4.876
			c1.27-1.808,2.43-3.693,3.736-5.474C9.68,9.121,11.016,7.975,12.622,7.1c1.768-0.965,3.159-2.479,5.016-3.374
			c3.838-1.85,7.825-3.094,12.06-3.554c0.145-0.016,0.269-0.065,0.38-0.155c0.377,0,0.754,0,1.13,0
			c-0.536,0.737-1.31,1.069-2.171,1.115c-1.613,0.086-3.154,0.451-4.59,1.159c-0.711,0.35-1.466,0.248-2.189,0.461
			C19.055,3.697,16.27,5.38,13.74,7.494c-0.754,0.63-1.703,0.809-2.425,1.602c-2.986,3.277-5.696,6.735-7.275,10.898
			c-1.142,3.009-1.77,6.178-2.244,9.38c-0.325,2.188-0.64,4.356-0.534,6.57c0.005,0.094,0.025,0.207-0.016,0.279
			c-1.266,2.209-0.514,4.592-0.516,6.881c-0.042,40.535-0.021,81.068-0.065,121.603C0.663,166.256,1.117,167.324,2.395,168.1z"/>
		<path fill="#F8F8F8" d="M30.078,0.02c-1.115,0.512-2.345,0.632-3.504,1.044c-2.138,0.759-4.422,1.065-6.538,1.967
			c-2.21,0.942-4.337,2.025-6.073,3.69c-0.842,0.808-1.954,1.032-2.839,1.768c-2.479,2.063-3.8,4.958-5.679,7.447
			c-2.019,2.675-2.433,5.924-3.365,9.003c-0.682,2.252-0.555,4.616-1.233,6.87c-0.326,1.084-0.11,2.33-0.148,3.502
			c-0.032,1.003-0.114,1.989-1.128,2.562c0-5.932,0-11.865,0-17.797c0.834-2.391,1.887-4.684,3.252-6.816
			c2.188-3.417,4.136-7.066,7.833-9.183c2.271-1.3,4.587-2.519,6.711-4.058C21.604,0.02,25.841,0.02,30.078,0.02z"/>
		<path fill="#FEFEFE" d="M20.193,8.21c1.884,0,3.768,0,5.65-0.001c1.949-0.819,3.988-0.381,5.993-0.437
			c1.788,0.117,3.573-0.051,5.36-0.051c41.546,0,83.092,0.001,124.638-0.002c1.13,0,2.256,0.06,3.382,0.107
			c0.41,0.045,0.785,0.234,1.189,0.3c1.187,0.309,2.371,0.619,3.314,1.468c0.842,0.601,1.6,1.279,2.141,2.173
			c0.457,0.717,0.832,1.476,1.188,2.249c0.209,0.535,0.354,1.083,0.362,1.662c0.026,35.259,0.008,70.516,0.013,105.772
			c0.002,16.711,0.004,33.422-0.001,50.129c0.134,2-0.731,3.66-1.801,5.251c-0.312,0.436-0.692,0.805-1.086,1.163
			c-1.604,1.14-3.257,2.153-5.334,2.092c-47.063,0.005-94.125,0-141.188,0.005c-2.487-0.014-4.977-0.001-7.466-0.008
			c-0.659-0.002-1.316-0.009-1.933-0.285c-0.862-0.314-1.669-0.742-2.424-1.27c-0.844-0.774-1.612-1.62-2.288-2.553
			c-0.715-1.447-1.225-2.947-1.142-4.6C8.928,122,8.421,72.626,9.03,23.255c0.079-2.474-0.165-4.953,0.138-7.423
			c-0.065-0.773,0.057-1.522,0.283-2.259c0.662-1.191,1.296-2.4,2.261-3.39c1.616-1.421,3.68-1.564,5.648-1.978
			C18.309,8.211,19.25,8.211,20.193,8.21z"/>
		<path fill="#F8F8F8" d="M9.174,15.839c0,2.449,0,4.897-0.001,7.346c-0.094,0.13-0.188,0.13-0.28-0.001
			c-0.001-0.282-0.001-0.564-0.001-0.847c0-2.072,0-4.144,0-6.215C8.986,16.028,9.08,15.934,9.174,15.839z"/>
		<path fill="#F8F8F8" d="M11.718,10.19c-0.625,1.216-1.362,2.356-2.261,3.39C9.807,12.181,10.44,10.971,11.718,10.19z"/>
		<path fill="#EBEBEB" d="M31.776,8.208c-1.978,0-3.955,0.001-5.933,0.001c0.211-0.487,0.667-0.716,1.111-0.787
			c2.166-0.347,4.229-1.233,6.468-1.192c1.741,0.032,3.424-0.482,5.136-0.698c1.173-0.148,2.222,0.155,3.33,0.154
			c37.312-0.02,74.625-0.014,111.937-0.028c0.834,0,1.668-0.188,2.51-0.269c2.738-0.264,5.383,0.615,8.086,0.736
			c2.876,0.128,5.637,0.76,8.402,1.47c2.396,0.613,4.494,1.845,6.691,2.877c-0.17,0.35-0.316,0.637,0.166,0.933
			c6.391,3.926,9.506,10.01,11.107,17.048c0.652,2.87,1.109,5.751,1.199,8.735c0.558,18.585,0.146,37.172,0.216,55.757
			c0.09,23.87,0.077,47.741-0.032,71.61c-0.021,4.135-0.417,8.275-1.443,12.372c-0.867,3.462-2.246,6.663-3.902,9.738
			c-1.393,2.584-3.732,4.438-6.061,6.209c-3.875,2.938-8.412,4.295-13.119,4.976c-4.006,0.572-8.017,1.146-12.109,1.064
			c-36.279-0.702-72.569-0.132-108.856-0.298c-1.661-0.013-3.322,0.209-4.984,0.259c-2.254,0.066-4.484-0.229-6.707-0.563
			c-2.816-0.42-5.698-0.494-8.417-1.435c-3.604-1.237-6.978-2.879-9.98-5.332c-1.783-1.453-3.337-3.131-4.486-4.987
			c-1.816-2.938-3.194-6.16-3.489-9.707c0.757-0.104,0.826,0.5,0.925,0.979c0.459,2.229,1.26,4.354,2.327,6.337
			c2.108,3.923,4.924,7.203,9.063,9.146c0.14,0.084,0.271,0.178,0.403,0.271c4.014,2.226,8.321,3.419,12.88,3.771
			c2.338,0.184,4.653,0.608,7.012,0.565c36.143-0.649,72.29-0.106,108.434-0.271c2.438-0.013,4.878-0.084,7.324,0.222
			c2.479,0.306,4.957-0.188,7.431-0.487c3.176-0.389,6.336-0.834,9.351-1.949c4.856-1.802,9.25-4.393,12.006-8.896
			c2.403-3.938,4.035-8.235,4.688-12.894c0.763-5.42,0.813-10.854,0.813-16.31c-0.01-36.953-0.027-73.905,0.029-110.857
			c0.008-3.855-0.078-7.705-0.379-11.533c-0.306-3.878-1.031-7.722-2.646-11.323c-1.188-2.931-2.791-5.597-5.01-7.877
			c-3.396-3.49-7.521-5.653-12.209-6.836c-1.492-0.377-2.963-0.905-4.528-0.421c-0.313-0.001-0.646,0.051-0.854-0.269
			c-0.229-0.256-0.519-0.399-0.859-0.42c-2.438-0.15-4.863-0.516-7.313-0.516C118.854,7.282,80.217,7.272,41.578,7.302
			C38.293,7.304,35.019,7.65,31.776,8.208z"/>
		<path fill="#EAEAEA" d="M20.756,193.523c-3.138-1.063-5.157-3.479-7.15-5.912c-2.358-2.887-3.623-6.273-4.421-9.859
			c-0.089-0.398-0.195-0.717-0.575-0.896c-0.648-3.674-1.418-7.323-1.417-11.09C7.2,123.805,7.165,81.844,7.261,39.883
			c0.008-3.325,0.231-6.723,1.029-10.016c0.104-0.426,0.145-0.835,0.601-1.033c0.272,0.536,0.132,1.111,0.132,1.665
			c0.008,46.489,0.007,92.979,0.015,139.467c0,0.603-0.146,1.224,0.134,1.808c-0.076,1.533,0.597,2.865,1.134,4.234
			c0.378,4.715,2.621,8.59,5.506,12.167c0.585,0.726,1.375,1.271,1.902,2.058c0.316,1.07,1.168,1.617,2.062,2.146
			C20.222,192.637,20.867,192.768,20.756,193.523z"/>
		<path fill="#F4F4F4" d="M9.171,171.773c-0.513-0.569-0.267-1.269-0.267-1.896C8.891,122.864,8.891,75.849,8.891,28.833
			c0-1.884,0.001-3.767,0.002-5.65c0.093,0,0.188,0,0.281,0.001C9.173,72.714,9.172,122.244,9.171,171.773z"/>
		<path fill="#E2E2E2" d="M12.287,178.264c0.644,0.399,1.419,0.57,1.974,1.125c0.316,0.287,0.597,0.604,0.76,1.002
			c1.218,3.002,3.326,5.328,5.677,7.465c2.173,1.979,4.82,3.16,7.55,4.012c3.692,1.146,7.559,1.516,11.411,1.762
			c9.872,0.631,19.758,0.252,29.637,0.271c28.333,0.061,56.667,0.061,85-0.02c4.6-0.012,9.221-0.271,13.741-1.313
			c4.378-1.006,8.442-2.698,11.707-5.866c1.791-1.736,3.295-3.771,4.217-6.12c2.229-5.673,3.242-11.564,3.048-17.667
			c-0.05-1.556,0.26-3.086,0.26-4.646c-0.021-36.103,0.033-72.202-0.064-108.295c-0.018-6.278-0.01-12.581-1.188-18.823
			c-1.521-8.06-5.443-14.137-13.273-17.283c-0.564-0.549-0.744-1.322-1.131-1.976c0.564-1.15,1.52-0.714,2.271-0.413
			c1.882,0.751,3.624,1.776,5.285,2.951c4.966,3.512,7.549,8.507,8.938,14.246c0.688,2.832,1,5.709,1.176,8.627
			c0.637,10.522,0.521,21.053,0.523,31.583c0.008,29.797,0.067,59.597-0.057,89.395c-0.021,5.653,0.009,11.375-1.359,16.94
			c-0.891,3.617-2.025,7.15-4.205,10.242c-3.275,4.659-7.759,7.566-13.232,8.992c-5.213,1.354-10.528,1.6-15.896,1.813
			c-11.146,0.444-22.297,0.166-33.439,0.198c-24.006,0.076-48.019,0.11-72.021-0.03c-6.589-0.039-13.203-0.037-19.743-1.533
			c-4.104-0.938-7.775-2.581-11.042-5.043c-1.718-1.295-3.138-3.088-4.372-4.932c-1.112-1.516-1.794-3.26-2.536-4.964
			C11.646,179.396,11.271,178.617,12.287,178.264z"/>
		<path fill="#DADADA" d="M172.735,13.86c0.52-0.573,0.953-0.055,1.379,0.136c7.089,3.177,10.695,8.94,12.186,16.316
			c0.752,3.723,0.967,7.503,1.385,11.262c0.108,0.979-0.297,1.925-0.279,2.929c0.674,38.306,0.154,76.615,0.269,114.923
			c0.021,5.44-0.188,10.902-1.579,16.239c-1.043,4.006-2.521,7.839-5.438,10.797c-2.051,2.08-4.406,3.937-7.287,4.918
			c-2.92,0.998-5.84,1.968-8.93,2.332c-1.254,0.147-2.529,0.259-3.771,0.31c-2.718,0.106-5.425,0.379-8.152,0.375
			c-36.154-0.039-72.31,0.014-108.462-0.063c-4.711-0.015-9.405-0.592-14.055-1.576c-5.653-1.192-10.075-4.146-13.46-8.717
			c-1.024-1.383-1.945-2.896-2.277-4.646c3.185,0.625,6.405,0.138,9.604,0.317c0.086,0.146,0.067,0.271-0.056,0.377
			c-0.183,0.127-0.388,0.188-0.605,0.226c-0.357,0.043-0.717,0.037-1.076,0.041c-0.357,0.021-0.716,0.014-1.074,0.004
			c-0.358,0.017-0.716-0.004-1.073,0c-0.284,0.016-0.567-0.012-0.851-0.004c-0.209,0.012-0.418,0-0.626-0.006
			c-0.271,0-0.541-0.007-0.811-0.002c-0.256,0.006-0.513-0.013-0.767,0.021c-0.761,0.414-0.209,0.901-0.002,1.264
			c0.728,1.263,1.585,2.438,2.54,3.532c0.388,0.643,0.869,1.188,1.519,1.581c0.106,0.063,0.206,0.141,0.303,0.219
			c0.553,0.504,1.172,0.913,1.825,1.271c0.495,0.281,0.97,0.602,1.462,0.889c0.708,0.471,1.513,0.729,2.289,1.055
			c1.173,0.396,2.344,0.797,3.545,1.102c1.298,0.341,2.617,0.57,3.938,0.798c0.143,0.021,0.281,0.056,0.418,0.097
			c0.912,0.271,1.863,0.035,2.784,0.202c0.151,0.019,0.299,0.051,0.445,0.091c1.479,0.271,2.979-0.019,4.463,0.176
			c0.175,0.021,0.343,0.061,0.512,0.104c0.605,0.161,1.221,0.099,1.83,0.099c35.73,0.004,71.46,0.004,107.188,0.002
			c0.168-0.003,0.343-0.003,0.513-0.002c1.039-0.027,2.09,0.146,3.121-0.129c0.153-0.052,0.313-0.082,0.476-0.103
			c2.758,0.021,5.498-0.186,8.233-0.466c0.517-0.123,1.036-0.226,1.556-0.338c0.854-0.063,1.688-0.22,2.49-0.519
			c3.156-0.925,6.256-1.972,8.809-4.175c2.061-1.778,4.139-3.536,4.946-6.307c0.187-0.639,0.646-1.14,1.031-1.664
			c0.532-0.849,0.789-1.771,0.786-2.771c0.308-1.313,0.349-2.689,0.973-3.932c0.632-2.66,0.684-5.396,0.924-8.096
			c0.51-5.673,0.326-11.365,0.327-17.056c0.002-32.649,0.001-65.306-0.001-97.959c0-0.752,0.046-1.506-0.063-2.252
			c-0.06-0.163-0.104-0.33-0.143-0.499c-0.188-2.043,0.075-4.101-0.158-6.144c-0.06-0.149-0.1-0.304-0.127-0.461
			c0.01-2.016-0.351-4.008-0.423-6.019c-0.057-0.139-0.096-0.283-0.125-0.429c-0.483-2.521-0.688-5.112-1.875-7.456
			c-1.139-1.832-2.071-3.79-3.397-5.506c-0.383-0.899-1.021-1.545-1.92-1.937c-1.438-0.849-2.672-2.021-4.197-2.742
			c-0.256-0.179-0.482-0.39-0.699-0.615C172.937,14.804,172.835,14.332,172.735,13.86z"/>
		<path fill="#E5E5E5" d="M14.541,184.482c2.402,3,4.887,5.826,8.474,7.596c2.909,1.434,5.938,2.213,9.06,2.855
			c4.01,0.821,8.067,0.78,12.134,0.87c28.982,0.604,57.968,0.087,86.951,0.257c6.26,0.034,12.521,0.123,18.778-0.026
			c7.013-0.167,14.063-0.091,20.92-1.972c5.729-1.571,10.466-4.599,13.55-9.808c2.823-4.771,4.06-9.996,4.461-15.513
			c0.593-8.163,0.528-16.332,0.528-24.502c0.004-31.491,0.022-62.98-0.021-94.471c-0.009-4.872-0.201-9.756-0.593-14.612
			c-0.354-4.398-1.298-8.729-3.313-12.708c-1.271-2.512-2.939-4.759-5.176-6.571c-1.947-1.58-4.057-2.858-6.302-3.937
			c-0.784-0.377-1.576-0.612-2.388-0.063c-0.567-0.751-1.229-1.41-1.979-1.978c0.43-1.118,1.334-0.641,2.002-0.483
			c1.926,0.456,3.771,1.17,5.479,2.187c3.031,1.807,6.08,3.607,7.89,6.84c0.298,0.532,0.703,1.004,0.729,1.654
			c0.549,1.501,1.394,2.871,1.92,4.375c1.239,3.561,1.974,7.205,2.188,10.996c1.19,20.92,0.36,41.855,0.521,62.782
			c0.154,20.896,0.141,41.797-0.033,62.69c-0.049,5.977-0.188,12.031-2.002,17.84c-1.66,5.313-4.658,9.688-9.289,12.918
			c-3.285,2.293-6.998,3.396-10.834,4.164c-4.477,0.896-9.02,1.021-13.57,1.229c-9.646,0.428-19.283,0.176-28.928,0.195
			c-25.647,0.063-51.3,0.096-76.955-0.021c-6.835-0.029-13.705-0.224-20.409-1.938c-5.502-1.412-10.148-4.137-13.671-8.648
			c-0.288-0.371-0.556-0.771-0.694-1.223C13.814,184.953,13.849,184.514,14.541,184.482z"/>
		<path fill="#B0B0B0" d="M170.421,177.688c0.285-0.299,0.571-0.604,0.855-0.897c0.576-0.188,0.925-0.623,1.211-1.121
			c2.005-3.496,3.117-7.291,3.188-11.285c0.688-39.618,0.159-79.245,0.264-118.868c0.008-3.678-0.082-7.418-1.168-11.016
			c-0.381-1.257-0.646-2.561-1.508-3.618c-0.133-0.798-0.223-1.595,0.047-2.385c0.979,0.014,1.344,0.797,1.729,1.472
			c1.57,2.765,2.268,5.817,2.327,8.938c0.809,40.289,0.157,80.583,0.348,120.875c0.021,3.766-0.245,7.53-1.188,11.194
			c-1.479,5.756-4.75,9.873-10.619,11.795c-4.34,1.422-8.801,1.572-13.242,1.582c-35.686,0.068-71.367,0.047-107.051,0.025
			c-4.43-0.002-8.839-0.307-13.068-1.826c-0.889-0.318-1.767-0.664-2.549-1.197c-0.457-0.313-0.984-0.608-0.851-1.316
			c0.67-0.38,1.382-0.188,2.082-0.146c3.308,1.778,6.92,2.395,10.594,2.463c36.458,0.688,72.917,0.155,109.379,0.256
			c4.739,0.014,9.61,0.095,14.174-1.77C167.231,180.076,169.135,179.373,170.421,177.688z"/>
		<path fill="#E9E9E9" d="M185.444,19.794c-3.129-5.377-8.129-8.175-13.818-10.009c-0.664-0.214-1.359-0.366-1.998,0.121
			c-0.906-0.755-2.018-1.065-3.105-1.418c0.813-1.161,2.008-0.636,2.908-0.426c3.412,0.794,6.666,2.006,9.7,3.864
			c3.031,1.856,5.421,4.263,7.259,7.251c0.773,1.257,1.854,2.392,1.883,4.007c1.279,2.149,1.609,4.591,2.104,6.973
			c1.021,4.935,1.123,9.954,1.127,14.963c0.023,38.685,0.051,77.37-0.021,116.056c-0.016,6.127-0.125,12.319-2.188,18.207
			c-1.479,4.229-3.276,8.367-6.866,11.303c-3.521,2.877-7.469,4.955-11.979,5.912c-4.084,0.867-8.203,1.613-12.358,1.549
			c-37.829-0.594-75.66-0.061-113.489-0.268c-1.141-0.007-2.22,0.316-3.354,0.32c-2.828,0.011-5.581-0.651-8.379-0.836
			c-4.366-0.289-8.294-1.856-12.105-3.84c-0.661-0.959-2.007-0.979-2.667-1.948c-0.244-0.362-0.793-0.579-0.44-1.159
			c0.791-0.061,1.27,0.533,1.834,0.912c4.443,2.982,9.446,4.257,14.66,5.044c4.58,0.69,9.187,0.638,13.774,0.646
			c34.167,0.072,68.334,0.063,102.501,0.021c5.021-0.006,10.063,0.063,15.037-0.729c5.176-0.816,10.229-1.996,14.499-5.361
			c3.362-2.656,5.896-5.875,7.45-9.893c1.492-3.846,2.104-7.839,2.438-11.926c0.942-11.316,0.498-22.652,0.521-33.98
			c0.064-30.492,0.107-60.989-0.053-91.484c-0.031-5.777-0.424-11.621-2.057-17.269C187.589,24.07,186.446,21.966,185.444,19.794z"
			/>
		<path fill="#E6E6E6" d="M185.444,19.794c1.688,1.807,2.438,4.079,3.084,6.381c1.063,3.799,1.341,7.712,1.771,11.62
			c0.875,7.883,0.471,15.774,0.479,23.658c0.063,32.854,0.089,65.709-0.021,98.563c-0.021,6.487-0.319,13.063-2.317,19.297
			c-1.25,3.897-3.183,7.506-6.481,10.354c-2.923,2.519-6.06,4.41-9.677,5.533c-3.174,0.985-6.461,1.428-9.775,1.733
			c-5.684,0.521-11.369,0.229-17.055,0.234c-35.301,0.04-70.604,0.066-105.904-0.021c-6.416-0.019-12.655-1.359-18.423-4.354
			c-1.237-0.643-2.32-1.583-3.475-2.386c-4.026-3.271-6.188-7.675-7.567-12.532c-0.164-0.574-0.288-1.305,0.224-1.875
			c0.661,0.751,1.321,1.503,1.982,2.257c-0.521,0.548-0.287,1.111-0.019,1.658c0.748,1.522,1.514,3.04,2.272,4.563
			c-0.867,0.5-0.21,0.957,0.081,1.354c2.659,3.65,6.046,6.396,10.295,7.973c4.109,1.521,8.396,2.229,12.759,2.549
			c6.796,0.504,13.601,0.563,20.409,0.563c31.072-0.015,62.146,0.062,93.216-0.063c6.018-0.022,12.064-0.241,18.01-1.604
			c5.369-1.229,10.064-3.501,13.771-7.676c1.741-1.967,3.007-4.188,3.954-6.604c1.5-3.813,2.257-7.768,2.392-11.894
			c1.237-38.201,0.19-76.411,0.534-114.615c0.033-3.86,0.233-7.738-0.055-11.577c-0.377-5.021-0.263-10.11-1.604-15.04
			c-0.646-2.371-1.549-4.629-2.686-6.795C185.392,20.618,185.099,20.274,185.444,19.794z"/>
		<path fill="#E9E9E9" d="M31.776,8.208c1.277-0.937,2.858-0.774,4.285-1.052c1.865-0.362,3.821-0.343,5.738-0.344
			c38.854-0.017,77.709-0.022,116.563,0.012c2.188,0.002,4.377,0.343,6.563,0.57c0.396,0.042,1.051,0.056,0.746,0.825
			C121.037,8.216,76.406,8.212,31.776,8.208z"/>
		<path fill="#B0B0B0" d="M173.308,30.811c1.691,0.513,1.537,2.175,1.85,3.361c0.681,2.57,0.961,5.211,1.012,7.912
			c0.592,34.239,0.063,68.48,0.236,102.721c0.021,4.094,0.063,8.188-0.016,12.279c-0.084,4.488-0.127,8.994-1.15,13.398
			c-0.479,2.063-1.521,3.927-2.549,5.766c-0.213,0.379-0.654,1.127-1.412,0.541c0.84-1.477,1.785-2.91,1.775-4.705
			c0.106-0.145,0.2-0.298,0.28-0.46c1.388-4.163,1.706-8.5,1.713-12.819c0.06-37.757,0.062-75.514-0.004-113.271
			c-0.008-4.169-0.188-8.387-1.79-12.361C173.146,32.382,173.03,31.592,173.308,30.811z"/>
		<path fill="#B0B0B0" d="M170.421,177.688c0.229,0.043,0.452,0.084,0.68,0.127c-0.08,0.156-0.119,0.384-0.248,0.455
			c-2.015,1.151-3.787,2.717-6.131,3.313c-2.504,0.644-5,1.164-7.599,1.21c-36.063,0.639-72.127,0.13-108.19,0.229
			c-4.615,0.019-9.287,0.01-13.814-1.14c-1.389-0.35-3.019-0.438-3.91-1.909c0.776-0.272,1.563-0.175,2.351-0.063
			c2.347,0.938,4.845,1.257,7.308,1.441c2.569,0.196,5.156,0.388,7.742,0.389c34.008,0.005,68.016,0.037,102.023-0.041
			c4.351-0.014,8.751-0.096,13.013-1.289c0.363-0.104,0.699-0.271,1.059-0.389c0.314-0.16,0.679-0.16,0.986-0.319
			C167.526,179.646,168.949,178.611,170.421,177.688z"/>
		<path fill="#D8D8D8" d="M173.289,172.055c-0.08,0.002-0.159,0.012-0.237,0.029c-0.015-0.281-0.041-0.563-0.041-0.845
			c0.008-51.987,0.016-103.976,0.022-155.963c0.308,0.005,0.631-0.038,0.829,0.281c-0.168,0.241-0.145,0.532-0.199,0.801
			c-0.021,0.233-0.021,0.466-0.018,0.7c0.013,0.188,0.015,0.374,0.015,0.562c0.008,0.261,0.009,0.522,0.012,0.783
			c0.011,0.201,0.013,0.402,0.009,0.604c-0.008,0.336,0.004,0.673-0.002,1.009c-0.009,0.469,0.077,0.933,0.079,1.401
			c-0.021,0.333-0.071,0.662-0.077,0.996c-0.023,0.477,0.061,0.947,0.094,1.42c-0.021,0.572-0.096,1.141-0.08,1.716
			c0.041,0.384,0.016,0.767,0.008,1.151c-0.006,0.646,0.141,1.323-0.391,1.859c0,0.751-0.002,1.502-0.004,2.253
			c0,0.755,0,1.51,0,2.265c0.453,0.865,0.479,1.807,0.479,2.749c0.003,44.305,0.004,88.609-0.007,132.916
			C173.78,169.861,173.808,171.002,173.289,172.055z"/>
		<path fill="#D9D9D9" d="M165.688,179.705c-0.195,0.089-0.392,0.178-0.586,0.268c-0.865,0.455-1.809,0.48-2.75,0.48
			c-42.039,0.002-84.081,0.002-126.121,0c-0.943,0-1.885-0.031-2.754-0.473c-0.757,0-1.513,0-2.27,0c-0.657,0-1.314,0-1.972,0
			c-0.558,0.489-1.238,0.377-1.893,0.393c-0.48,0.053-0.961-0.004-1.441-0.009c-0.477,0.019-0.953,0.021-1.428-0.054
			c-0.243-0.047-0.46-0.146-0.611-0.354c0-0.084,0.001-0.168,0.001-0.251c7.009-0.014,14.018-0.03,21.026-0.03
			c39.89-0.005,79.779-0.003,119.669-0.002C164.937,179.678,165.313,179.695,165.688,179.705z"/>
		<path fill="#EAEAEA" d="M20.756,193.523c2.397,0.672,4.521,2.004,6.937,2.703c3.187,0.924,6.483,0.857,9.678,1.543
			c2.388,0.51,4.756,0.012,7.133,0.01c36.81-0.027,73.619-0.101,110.429,0.092c4.192,0.021,8.295-0.408,12.418-0.766
			c2.141-0.188,4.323-0.775,6.366-1.625c3.7-1.539,7.304-3.316,9.996-6.357c3.603-4.066,5.486-8.988,6.541-14.273
			c0.649-3.266,0.776-6.563,0.832-9.871c0.667-40.229,0.115-80.461,0.279-120.701c0.01-2.384-0.472-4.768-0.462-7.131
			c0.018-3.173-0.571-6.208-1.217-9.263c-0.345-1.607-0.865-3.157-1.416-4.7c1.498,1.284,1.429,3.222,1.895,4.882
			c1.191,4.259,1.432,8.675,1.475,13.075c0.077,7.652,0.021,15.305,0.021,22.958c0,33.425,0.063,66.85-0.047,100.276
			c-0.021,7.045-1.021,13.934-4.381,20.402c-2.418,4.656-6.109,7.594-10.562,9.867c-3.29,1.684-6.833,2.457-10.502,2.871
			c-2.881,0.321-5.729,0.861-8.651,0.813c-37.51-0.662-75.021-0.104-112.528-0.301c-1.507-0.01-2.967,0.434-4.485,0.303
			c-4.841-0.418-9.731-0.577-14.376-2.17C24.251,195.521,22.312,194.877,20.756,193.523z"/>
		<path fill="#CCCCCC" d="M173.31,20.081c0-0.376,0-0.753,0-1.129c0.543-0.231,1.022-0.063,1.445,0.272
			c3.244,2.569,5.625,5.725,6.854,9.738c1.522,4.99,1.91,10.101,1.996,15.28c0.623,37.225,0.151,74.451,0.205,111.678
			c0.01,6.494,0.061,13.092-1.912,19.41c-1.863,5.966-5.529,10.344-11.539,12.625c-3.707,1.408-7.502,1.914-11.438,2.045
			c-37.308,1.234-74.623,0.227-111.934,0.484c-4.579,0.033-9.213-0.252-13.722-1.176c-4.62-0.945-8.91-2.729-12.029-6.521
			c-0.664-0.811-1.545-1.564-1.321-2.811c0.376,0,0.753,0,1.129,0c0.679,0.594,1.162,1.354,1.73,2.041
			c2.29,2.771,5.386,4.151,8.72,5.146c3.581,1.063,7.277,1.338,10.973,1.403c36.936,0.668,73.875,0.182,110.813,0.205
			c4.168,0.004,8.453-0.065,12.576-1.068c5.813-1.415,10.566-4.278,13.289-9.923c1.563-3.238,2.229-6.675,2.473-10.189
			c1.295-18.704,0.412-37.436,0.568-56.151c0.154-18.729,0.031-37.459,0.033-56.191c0.002-3.906,0.149-7.821-0.06-11.717
			c-0.253-4.716-0.468-9.469-1.972-14.014c-1.021-3.093-2.746-5.746-5.264-7.862C174.354,21.167,173.813,20.639,173.31,20.081z"/>
		<path fill="#C0C0C0" d="M23.863,179.96c0.189,0.007,0.379,0.015,0.568,0.021c1.903,1.525,3.742,3.115,6.1,3.98
			c2.663,0.979,5.378,1.611,8.206,1.799c18.468,1.223,36.957,0.371,55.435,0.527c18.488,0.156,36.979,0.023,55.472,0.044
			c2.777,0.003,5.531-0.245,8.293-0.489c1.678-0.148,3.359,0.021,5.049-0.305c3.457-0.667,6.736-1.721,9.627-3.791
			c1.121-0.424,1.914-1.199,2.422-2.279c0.281-0.568,0.684-1.049,1.119-1.498c2.104-3.408,3.104-7.156,3.229-11.113
			c1.271-39.808,0.27-79.625,0.539-119.438c0.023-3.746-0.46-7.493-0.579-11.249c-0.038-1.204-0.562-2.37-0.794-3.564
			c-0.043-0.146-0.085-0.297-0.132-0.443c-0.531-2.357-1.539-4.495-3.024-6.404c-0.529-0.734-1.492-1.079-1.813-2.005
			c-0.459-0.398-0.211-0.931-0.267-1.406c0.77-0.228,1.229,0.27,1.715,0.721c2.938,2.75,4.395,6.261,5.158,10.115
			c0.844,4.247,0.879,8.565,1.193,12.863c0.395,5.268,0.206,10.53,0.213,15.792c0.038,30.031,0.04,60.063-0.003,90.096
			c-0.008,4.922-0.271,9.838-0.708,14.756c-0.29,3.271-0.854,6.396-2.063,9.42c-1.838,4.604-5.004,7.912-9.715,9.603
			c-3.1,1.11-6.269,1.633-9.604,1.821c-19.041,1.076-38.094,0.296-57.137,0.451c-19.063,0.158-38.125,0.108-57.188-0.021
			c-4.566-0.03-9.19-0.288-13.627-1.672c-2.95-0.921-5.685-2.229-7.8-4.582c-0.443-0.494-0.937-0.981-0.454-1.728
			C23.489,179.973,23.677,179.967,23.863,179.96z"/>
		<path fill="#C7C7C7" d="M173.31,20.081c0.332-0.007,0.654,0.006,0.928,0.246c2.943,2.576,5.275,5.529,6.439,9.371
			c1.083,3.574,1.303,7.239,1.697,10.906c0.439,4.088,0.225,8.17,0.229,12.252c0.026,36.003,0.063,72.007-0.033,108.011
			c-0.018,5.033-0.444,10.121-2.061,14.955c-0.719,2.154-1.898,4.133-3.438,5.919c-4.408,5.146-10.239,6.757-16.666,6.976
			c-37.998,1.295-76.006,0.289-114.01,0.492c-5.851,0.031-11.809-0.211-17.428-2.412c-3.138-1.23-5.743-3.115-7.686-5.89
			c-0.206-0.294-0.251-0.599-0.243-0.931c0.376,0,0.752,0.002,1.128,0.002c0.85,0.811,1.548,1.758,2.396,2.576
			c2.581,2.48,5.829,3.59,9.193,4.288c4.6,0.95,9.288,1.177,13.984,1.175c34.781-0.004,69.563-0.002,104.345,0
			c2.351,0,4.669-0.347,7.002-0.49c1.815-0.116,3.644-0.047,5.442-0.42c6.375-1.318,11.465-4.347,14.188-10.562
			c0.813-0.823,0.965-1.885,1.016-2.978c0.664-2.748,1.224-5.516,1.188-8.356c-0.005-0.421,0.021-0.839,0.235-1.218
			c0.438-1.59,0.107-3.211,0.203-4.813c0.031-0.557-0.012-1.106,0.061-1.662c0.025-0.182,0.079-0.352,0.146-0.518
			c0.113-0.65,0.066-1.313,0.066-1.973c0.006-35.366,0.006-70.731,0.004-106.098c0-0.61,0.033-1.223-0.064-1.828
			c-0.066-0.159-0.111-0.327-0.145-0.497c-0.193-1.781,0.105-3.582-0.189-5.36c-0.049-0.152-0.079-0.308-0.104-0.466
			c-0.203-1.529,0.209-3.098-0.291-4.608c-0.229-0.787-0.396-1.589-0.582-2.388c0-0.899,0.031-1.804-0.336-2.656
			c-0.054-0.122-0.093-0.249-0.127-0.377c-0.167-0.805-0.291-1.628-0.861-2.281c-0.297-0.352-0.5-0.749-0.604-1.194
			c-0.16-0.737-0.456-1.4-1.047-1.901c-1.142-1.394-2.56-2.52-3.718-3.894C173.317,21.052,173.269,20.575,173.31,20.081z"/>
		<path fill="#D4D4D4" d="M173.306,16.972c0-0.282-0.002-0.564-0.002-0.846c1.299-0.292,2.073,0.684,2.969,1.284
			c5.438,3.649,7.639,9.166,8.729,15.305c0.479,2.688,0.719,5.419,0.782,8.128c0.079,3.291,0.366,6.569,0.364,9.865
			c-0.023,35.819,0,71.638-0.041,107.456c-0.004,4.13-0.287,8.271-0.836,12.363c-0.564,4.248-1.615,8.422-3.959,12.094
			c-2.242,3.516-5.475,5.936-9.332,7.413c-3.744,1.435-7.664,1.968-11.684,2.274c-10.337,0.789-20.682,0.438-31.02,0.467
			c-27.063,0.063-54.125,0.086-81.188-0.028c-5.938-0.024-11.934-0.128-17.753-1.644c-5.105-1.328-9.457-3.869-12.503-8.316
			c-0.572-0.836-1.267-1.668-1.029-2.818c0.283,0.002,0.565,0.004,0.849,0.006c0.533,0.271,0.816,0.756,1.127,1.229
			c3.413,5.215,8.351,7.813,14.408,8.892c5.784,1.027,11.583,1.045,17.403,1.047c34.781,0.004,69.563,0.021,104.345-0.021
			c4.078-0.004,8.185-0.238,12.159-1.188c5.604-1.34,10.503-3.888,13.448-9.174c1.59-2.854,2.676-5.894,3.09-9.154
			c0.967-7.604,1.15-15.25,1.146-22.912c-0.043-32.475,0.002-64.944-0.041-97.419c-0.006-4.829-0.281-9.652-0.737-14.472
			c-0.362-3.83-1.136-7.494-2.638-11.029c-1.414-3.327-3.854-5.733-6.729-7.768C174.175,17.673,173.655,17.433,173.306,16.972z"/>
		<path fill="#C5C5C5" d="M173.58,21.489c1.703,0.809,2.688,2.391,3.955,3.673c0.457,0.613,0.653,1.375,1.131,1.978
			c0.047,0.447,0.199,0.841,0.563,1.13c0.371,0.817,0.582,1.689,0.849,2.542c0.438,0.892,0.313,1.896,0.563,2.825
			c0.15,0.762,0.145,1.565,0.563,2.26c0.299,1.186,0.056,2.394,0.142,3.587c0.036,0.5-0.138,1.021,0.145,1.498
			c0.303,1.375,0.054,2.768,0.145,4.15c0.032,0.5-0.141,1.022,0.143,1.5c0.261,0.489,0.132,1.017,0.134,1.524
			c0.009,35.896,0.009,71.791,0,107.685c-0.002,0.509,0.127,1.036-0.134,1.525c-0.313,1.655-0.057,3.329-0.146,4.993
			c-0.034,0.597,0.146,1.209-0.135,1.785c-0.092,0.265-0.276,0.535-0.256,0.789c0.271,3.022-0.636,5.896-1.156,8.813
			c-0.217,0.962-0.426,1.926-0.851,2.824c-1.1,1.791-2.043,3.677-3.438,5.277c-2.691,3.104-6.377,4.372-10.146,5.435
			c-3.049,0.854-6.228,0.774-9.344,0.836c-37.291,0.706-74.588,0.144-111.883,0.295c-1.576,0.006-3.164-0.521-4.729-0.44
			c-2.762,0.137-5.343-0.604-7.957-1.229c-3.753-0.896-6.928-2.746-9.319-5.836c-0.221-0.285-0.252-0.598-0.247-0.93
			c0.377,0,0.754,0,1.132,0c-0.022,0.392,0.042,0.746,0.343,1.032c1.629,1.563,3.337,2.931,5.449,3.896
			c3.987,1.821,8.227,1.959,12.449,2.438c3.525,0.396,7.042,0.228,10.561,0.229c32.905,0.025,65.812,0.016,98.716,0.021
			c2.768,0,5.513-0.354,8.266-0.485c2.008-0.099,3.979-0.188,5.949-0.615c6.936-1.512,11.816-5.212,14.041-12.235
			c0.963-3.034,1.277-6.099,1.557-9.196c0.756-8.438,0.572-16.896,0.573-25.354c0.005-30.175,0.036-60.35-0.036-90.525
			c-0.012-4.532-0.341-9.085-0.882-13.586c-0.438-3.631-1.542-7.173-3.687-10.228c-0.854-1.212-1.887-2.355-3.293-3.02
			C173.308,22.029,173.254,21.699,173.58,21.489z"/>
		<path fill="#D8D8D8" d="M16.806,179.969c3.115,6.615,8.619,9.742,15.574,11.084c4.088,0.788,8.181,0.826,12.286,1.122
			c4.187,0.302,8.36,0.196,12.537,0.2c31.445,0.033,62.89,0.08,94.334-0.035c6.203-0.021,12.508-0.098,18.498-1.996
			c5.995-1.9,10.593-5.604,12.878-11.707c1.406-3.756,2.012-7.641,2.316-11.654c0.48-6.381,0.49-12.758,0.49-19.141
			c0.01-33.375,0.07-66.75-0.063-100.124c-0.021-5.917-0.189-11.888-1.607-17.721c-0.881-3.62-2.338-6.966-4.84-9.705
			c-1.627-1.781-3.508-3.396-5.912-4.167c0.104-0.272,0.293-0.458,0.563-0.568c1.546,0.743,2.828,1.877,4.234,2.825
			c0.764,0.557,1.424,1.216,1.979,1.978c1.407,1.613,2.258,3.582,3.393,5.367c1.085,2.53,1.349,5.267,1.979,7.91l0,0
			c0.221,2.163,0.336,4.335,0.563,6.497c0.297,1.611,0.055,3.238,0.146,4.855c0.029,0.548-0.146,1.116,0.142,1.642
			c0.261,0.489,0.132,1.017,0.132,1.524c0.01,36.37,0.036,72.74-0.039,109.111c-0.008,3.728-0.16,7.479-0.746,11.194
			c-0.229,1.455-0.112,2.979-0.477,4.438c-0.527,1.168-0.579,2.444-0.85,3.675c-0.27,0.944-0.601,1.872-0.852,2.821
			c-0.511,0.556-0.859,1.188-1.154,1.889c-1.94,4.6-5.703,7.225-10.094,9.104c-1.188,0.51-2.479,0.774-3.724,1.153
			c-0.838,0.243-1.713,0.308-2.543,0.563c-0.438,0.268-0.918,0.313-1.411,0.279c-2.368,0.135-4.723,0.51-7.104,0.436
			c-0.551-0.021-1.125-0.152-1.656,0.134c-1.01,0.38-2.098-0.108-3.104,0.28c-0.094,0-0.188,0-0.278,0
			c-0.533-0.277-1.109-0.138-1.662-0.138c-35.521-0.01-71.042-0.01-106.563-0.017c-0.555-0.001-1.129,0.139-1.666-0.133
			c-1.583-0.396-3.219,0.104-4.803-0.281c-1.009-0.395-2.098,0.102-3.107-0.281c-1.396-0.354-2.821-0.582-4.237-0.849
			c-1.299-0.134-2.49-0.615-3.672-1.13c-0.646-0.592-1.572-0.621-2.26-1.133c-0.602-0.063-0.993-0.479-1.412-0.848
			c-0.633-0.512-1.335-0.921-1.978-1.414c-0.664-0.466-1.229-1.029-1.695-1.691c-1.423-1.231-2.398-2.789-3.211-4.463
			C15.781,180.146,16.152,179.947,16.806,179.969z"/>
		<path fill="#D1D1D1" d="M173.308,18.385c0-0.283,0-0.566,0-0.849c0.744-0.319,1.271,0.192,1.773,0.552
			c3.887,2.777,6.477,6.444,7.771,11.078c1.293,4.615,1.654,9.322,1.735,14.07c0.649,38.221,0.146,76.444,0.241,114.667
			c0.013,5.242-0.166,10.558-1.32,15.685c-1.811,8.033-6.314,13.785-14.676,16.029c-4.225,1.135-8.506,1.567-12.813,1.612
			c-36.623,0.377-73.25,0.121-109.875,0.136c-5.956,0.003-11.959-0.257-17.669-2.267c-4.05-1.43-7.384-3.896-9.701-7.597
			c-0.292-0.467-0.711-0.925-0.286-1.528c0.19,0.002,0.381,0.002,0.57,0.002c1.312,1.146,2.067,2.743,3.335,3.963
			c3.26,3.14,7.228,4.641,11.558,5.334c9.455,1.517,18.995,1.131,28.514,1.139c29.604,0.02,59.209,0.085,88.813-0.064
			c5.162-0.021,10.402-0.132,15.496-1.347c5.463-1.306,10.045-3.928,12.972-8.924c1.782-3.045,2.677-6.386,3.138-9.853
			c0.396-2.977,0.545-5.959,0.596-8.962c0.625-37.688,0.146-75.375,0.199-113.063c0.012-5.491-0.096-11.044-1.354-16.474
			c-1.172-5.054-3.459-9.393-7.703-12.545C174.215,18.873,173.671,18.779,173.308,18.385z"/>
		<path fill="#CDCDCD" d="M173.308,18.385c2.082,0.507,3.41,2.056,4.713,3.56c4.014,4.631,5.229,10.282,5.424,16.163
			c1.313,39.786,0.313,79.583,0.521,119.376c0.029,5.438-0.053,10.979-1.385,16.332c-1.845,7.396-6.114,12.699-13.679,14.879
			c-3.246,0.936-6.575,1.248-9.957,1.52c-7.229,0.58-14.452,0.469-21.684,0.475c-30.07,0.021-60.147,0.074-90.221-0.049
			c-5.684-0.021-11.444-0.229-16.958-1.938c-4.764-1.477-8.7-4.104-11.02-8.729c0.282,0,0.563,0.002,0.846,0.002
			c2.335,4.787,6.582,7.023,11.4,8.42c3.799,1.102,7.733,1.367,11.662,1.438c36.092,0.673,72.188,0.187,108.281,0.22
			c5.152,0.006,10.414-0.082,15.486-1.352c5.313-1.324,9.857-3.838,12.707-8.793c1.49-2.598,2.379-5.369,2.896-8.307
			c0.695-3.94,0.728-7.916,0.863-11.896c0.577-16.604,0.157-33.212,0.229-49.815c0.09-20.521,0.09-41.045-0.039-61.569
			c-0.021-3.816-0.227-7.658-0.646-11.487c-0.453-4.148-1.287-8.152-3.306-11.77c-1.426-2.558-3.353-4.833-6.151-6.112
			C173.308,18.763,173.308,18.574,173.308,18.385z"/>
		<path fill="#D2D2D2" d="M18.498,179.975c0.053,1.502,1.126,2.494,1.996,3.463c3.204,3.574,7.228,5.586,12.001,6.475
			c9.125,1.688,18.319,1.332,27.503,1.343c30.736,0.038,61.474,0.101,92.209-0.06c5.813-0.025,11.705-0.229,17.369-2.021
			c6.399-2.021,10.664-6.16,12.81-12.551c1.01-3.004,1.436-6.063,1.684-9.211c0.9-11.361,0.481-22.736,0.508-34.104
			c0.066-28.336,0.102-56.674-0.035-85.01c-0.027-5.779-0.021-11.62-1.366-17.327c-1.241-5.266-3.813-9.653-8.319-12.774
			c-0.448-0.313-1.022-0.444-1.543-0.659c0-0.188,0-0.376-0.002-0.564c2.236,0.622,3.801,2.246,5.269,3.852
			c4.021,4.4,5.178,9.873,5.789,15.62c1.045,9.839,0.782,19.699,0.793,29.555c0.03,30.645,0.058,61.291-0.029,91.938
			c-0.016,5.369-0.309,10.806-1.483,16.043c-1.457,6.485-4.832,11.808-11.236,14.619c-2.883,1.271-5.939,1.885-9.043,2.396
			c-2.508,0.417-5.055,0.493-7.557,0.498c-37.473,0.077-74.942,0.079-112.414,0.021c-4.531-0.011-9.081-0.434-13.465-1.703
			c-5.419-1.576-9.684-4.688-12.269-9.836C17.936,179.973,18.217,179.973,18.498,179.975z"/>
		<path fill="#D8D8D8" d="M185.163,172.902c0.365-4.846,0.734-9.689,1.095-14.533c0.038-0.516,0.034-1.034,0.034-1.551
			c0.001-36.729,0.001-73.458,0.001-110.188c0.455,0.419,0.274,0.971,0.274,1.466c0.009,36.975,0.043,73.95-0.041,110.925
			c-0.01,4.424-0.459,8.858-1.092,13.264C185.403,172.499,185.257,172.695,185.163,172.902z"/>
		<path fill="#D9D9D9" d="M42.508,192.958c36.046,0,72.093-0.001,108.14,0.011c0.584,0,1.23-0.229,1.748,0.271
			c-36.047,0-72.092,0.002-108.139-0.01C43.673,193.23,43.026,193.46,42.508,192.958z"/>
		<path fill="#D8D8D8" d="M185.444,33.636c-0.659-2.637-1.317-5.273-1.979-7.91c1.143,1.729,1.271,3.759,1.678,5.702
			C185.292,32.151,185.567,32.871,185.444,33.636z"/>
		<path fill="#D9D9D9" d="M155.783,192.958c0.196-0.247,0.474-0.298,0.761-0.278c2.678,0.189,5.323-0.426,7.998-0.287
			c-1.617,0.487-3.305,0.365-4.955,0.539C158.332,193.064,157.054,192.958,155.783,192.958z"/>
		<path fill="#D8D8D8" d="M186.011,40.133c-0.507-2.138-0.576-4.314-0.564-6.497C185.951,35.774,186.022,37.95,186.011,40.133z"/>
		<path fill="#D8D8D8" d="M186.293,46.63c-0.59-1.242-0.174-2.558-0.271-3.837c-0.065-0.882-0.018-1.773-0.018-2.66
			c0.592,1.242,0.174,2.558,0.271,3.837C186.347,44.852,186.293,45.743,186.293,46.63z"/>
		<path fill="#D9D9D9" d="M30.361,191.546c1.472-0.013,2.89,0.245,4.237,0.847C33.143,192.328,31.727,192.061,30.361,191.546z"/>
		<path fill="#D9D9D9" d="M37.705,192.676c1.598,0.157,3.232-0.334,4.803,0.282C40.911,192.801,39.276,193.293,37.705,192.676z"/>
		<path fill="#D8D8D8" d="M180.078,20.359c-0.772-0.546-1.433-1.205-1.979-1.978C179.088,18.713,179.747,19.373,180.078,20.359z"/>
		<path fill="#D8D8D8" d="M183.468,179.398c0-1.026,0.329-1.955,0.85-2.824C184.315,177.602,183.985,178.527,183.468,179.398z"/>
		<path fill="#D9D9D9" d="M19.344,185.331c0.677,0.453,1.242,1.019,1.695,1.694C20.147,186.788,19.582,186.223,19.344,185.331z"/>
		<path fill="#D9D9D9" d="M21.039,187.025c0.816,0.25,1.516,0.666,1.978,1.412C22.199,188.188,21.5,187.773,21.039,187.025z"/>
		<path fill="#D9D9D9" d="M24.429,189.285c0.812,0.262,1.74,0.287,2.26,1.131C25.903,190.102,24.986,190.053,24.429,189.285z"/>
		<path fill="#D9D9D9" d="M152.677,193.24c0.99-0.598,2.076-0.137,3.106-0.282C154.795,193.557,153.708,193.096,152.677,193.24z"/>
		<path fill="#D9D9D9" d="M34.598,192.393c1.031,0.146,2.118-0.313,3.107,0.283C36.674,192.53,35.588,192.992,34.598,192.393z"/>
		<path fill="#D9D9D9" d="M165.953,192.111c0.782-0.479,1.647-0.584,2.543-0.565C167.713,192.023,166.849,192.129,165.953,192.111z"
			/>
		<path fill="#B7B7B7" d="M27.26,179.98c0.659,0,1.317,0,1.976,0c0.349,0.957,1.268,1.213,2.052,1.558
			c2.856,1.256,5.86,1.999,8.979,2.087c23.8,0.671,47.604,0.148,71.407,0.279c14.118,0.078,28.238,0.084,42.354-0.029
			c4.188-0.033,8.41-0.247,12.434-1.76c4.193-1.576,7.143-4.391,8.746-8.569c1.133-2.948,1.71-6.021,1.762-9.181
			c0.656-40.227,0.131-80.456,0.238-120.683c0.01-3.858-0.221-7.78-1.622-11.482c-0.517-1.359-1.063-2.712-2.274-3.643
			c0.002-0.661,0.002-1.322,0.002-1.983c0.842-0.362,1.194,0.279,1.572,0.798c1.434,1.976,2.1,4.273,2.805,6.572
			c0.803,2.614,0.424,5.317,0.812,7.962c0.606,4.206,0.272,8.453,0.274,12.682c0.023,34.084,0.021,68.169,0.01,102.254
			c-0.002,4.836-0.159,9.697-1.189,14.417c-1.554,7.117-6.094,11.511-13.334,13.104c-3.146,0.688-6.316,0.572-9.479,0.875
			c-3.949,0.378-7.896,0.214-11.843,0.217c-32.06,0.027-64.12,0.055-96.181-0.028c-4.15-0.012-8.354-0.146-12.428-1.174
			c-2.135-0.539-4.256-1.202-6.04-2.601C27.741,181.223,27.071,180.866,27.26,179.98z"/>
		<path fill="#A9A9A9" d="M173.289,172.055c0-45.146,0-90.299,0-135.448c0-1.177,0.012-2.354,0.019-3.53
			c1.393,1.307,1.273,3.148,1.662,4.797c0.555,2.339,0.532,4.768,0.536,7.128c0.074,38.086,0.08,76.174,0.013,114.26
			c-0.009,3.816-0.224,7.687-1.427,11.381C173.926,171.15,173.933,171.799,173.289,172.055z"/>
		<path fill="#A9A9A9" d="M33.478,179.98c4.33-0.008,8.661-0.025,12.992-0.025c39.544,0.004,79.087,0.011,118.632,0.018
			c-1.576,1.543-3.646,1.592-5.617,1.662c-37.08,1.313-74.167,0.271-111.252,0.551c-4.194,0.033-8.42-0.176-12.55-1.108
			C34.876,180.889,33.985,180.799,33.478,179.98z"/>
		<path fill="#BDBDBD" d="M173.299,181.941c-1.7,0.766-3.103,2.063-4.932,2.621c-3.03,0.914-6.015,1.938-9.272,1.646
			c-1.34-0.111-2.72,0.145-4.048,0.313c-1.836,0.24-3.653,0.205-5.479,0.205c-34.631,0.016-69.267,0.059-103.896-0.043
			c-4.834-0.016-9.729-0.316-14.379-1.963c-2.218-0.785-4.347-1.77-6.023-3.5c-0.352-0.361-0.833-0.646-0.843-1.248
			c0.471,0,0.942,0,1.414,0.002c2.314,1.691,4.654,3.275,7.525,3.991c2.933,0.729,5.892,1.146,8.891,1.2
			c36.559,0.672,73.12,0.186,109.686,0.221c4.875,0.006,9.875-0.035,14.611-1.674c5.324-1.838,8.951-5.331,10.555-10.836
			c0.92-3.171,1.369-6.411,1.396-9.688c0.354-39.438,0.119-78.875,0.099-118.313c-0.004-4.548,0.006-9.203-1.733-13.599
			c-0.854-2.169-1.867-4.201-3.562-5.844c-0.024-0.584-0.059-1.168,0.271-1.697c0.69,0.528,1.444,0.984,1.979,1.694
			c1.291,2.044,2.385,4.183,3.106,6.498c1.172,4.1,1.183,8.323,1.258,12.529c0.669,37.32,0.172,74.646,0.216,111.968
			c0.008,4.791-0.009,9.648-1.025,14.42c-0.588,2.748-1.568,5.294-2.984,7.691c-0.283,0.377-0.563,0.755-0.852,1.134
			C174.731,180.535,173.834,181.08,173.299,181.941z"/>
		<path fill="#B8B8B8" d="M173.312,25.446c0.647-0.067,1.035,0.284,1.379,0.789c2.547,3.745,3.908,7.862,3.979,12.405
			c0.646,41.558,0.127,83.117,0.239,124.674c0.014,4.494-0.653,8.979-2.729,13.065c-1.271,2.511-3.188,4.521-5.646,5.938
			c-3.793,2.188-7.933,2.892-12.277,3.031c-37.164,1.246-74.338,0.231-111.506,0.479c-5.069,0.032-10.233-0.254-15.106-1.978
			c-2.209-0.773-4.494-1.647-5.799-3.881c0.471,0,0.942,0,1.414,0c0.66,1.396,2.09,1.938,3.277,2.523
			c2.258,1.115,4.763,1.697,7.278,1.959c7.521,0.785,15.073,0.584,22.617,0.584c30.081,0.004,60.162,0,90.243,0.004
			c2.347,0,4.691-0.555,6.991-0.4c2.223,0.146,4.256-0.359,6.354-0.727c6.14-1.057,10.89-5.047,12.655-11.021
			c1.03-3.473,1.365-7.047,1.429-10.654c0.646-39.018,0.156-78.028,0.188-117.042c0.003-4.613-0.051-9.388-1.853-13.844
			c-0.563-1.395-1.153-2.765-2.041-3.993c-0.282-0.392-0.558-0.766-1.097-0.788C173.312,26.199,173.312,25.823,173.312,25.446z"/>
		<path fill="#BFBFBF" d="M176.124,178.551c0.559-1.893,1.861-3.469,2.252-5.441c0.471-2.383,1.084-4.719,1.161-7.186
			c1.228-39.4,0.28-78.812,0.444-118.217c0.021-4.903,0.072-9.937-1.282-14.782c-0.087-0.307-0.025-0.655-0.033-0.984
			c0.587,1.524,1.063,3.095,1.114,4.725c1.27,39.831,0.308,79.673,0.514,119.509c0.025,5.12,0.034,10.323-1.109,15.378
			C178.617,174.049,177.878,176.541,176.124,178.551z"/>
		<path fill="#BFBFBF" d="M178.666,31.941c-1.036-2.166-2.071-4.332-3.106-6.498C177.146,27.346,178.218,29.494,178.666,31.941z"/>
		<path fill="#BFBFBF" d="M173.299,181.941c0.3-1.068,1.209-1.604,1.979-2.26C174.978,180.749,174.067,181.283,173.299,181.941z"/>
		<path fill="#C6C6C6" d="M181.772,157.365c0-36.912,0-73.823,0-110.735c0.455,0.419,0.274,0.971,0.274,1.466
			c0.009,35.934,0.009,71.868,0,107.802C182.048,156.395,182.229,156.945,181.772,157.365z"/>
		<path fill="#C6C6C6" d="M181.49,164.145c0-1.82-0.009-3.646,0.007-5.465c0.003-0.449-0.146-0.947,0.275-1.313
			c0,1.819,0.008,3.643-0.01,5.464C181.765,163.279,181.912,163.775,181.49,164.145z"/>
		<path fill="#C6C6C6" d="M181.772,46.63c-0.641-1.856-0.104-3.771-0.28-5.649C182.132,42.836,181.599,44.751,181.772,46.63z"/>
		<path fill="#C6C6C6" d="M181.49,40.981c-0.623-1.666-0.123-3.394-0.282-5.085C181.831,37.561,181.332,39.29,181.49,40.981z"/>
		<path fill="#C6C6C6" d="M179.229,176.574c0.123-0.99,0.451-1.918,0.854-2.825C180.104,174.783,179.951,175.764,179.229,176.574z"
			/>
		<path fill="#C6C6C6" d="M180.646,33.636c-0.418-0.896-0.469-1.865-0.563-2.825C180.772,31.652,180.632,32.659,180.646,33.636z"/>
		<path fill="#C6C6C6" d="M180.078,30.811c-0.504-0.774-0.752-1.633-0.849-2.542C179.885,28.993,180.063,29.874,180.078,30.811z"/>
		<path fill="#C6C6C6" d="M178.666,27.139c-0.711-0.468-0.929-1.22-1.131-1.978C178.247,25.63,178.462,26.381,178.666,27.139z"/>
	</g>
</g>
<g>
	<g id="XMLID_1_">
		<g>
			<polygon fill="#FFFFFF" points="158.062,87.211 127.86,116.712 135.051,158.313 97.661,138.712 97.491,43.472 97.55,43.352 
				116.28,81.182 			"/>
			<polygon fill="#333333" points="97.491,43.472 97.661,138.712 60.311,158.393 67.4,116.781 37.141,87.341 78.911,81.231 			"/>
		</g>
		<g>
			<polygon fill="none" stroke="#333333" stroke-width="2" stroke-miterlimit="10" points="97.661,138.712 60.311,158.393 
				67.4,116.781 37.141,87.341 78.911,81.231 97.491,43.472 97.55,43.352 116.28,81.182 158.062,87.211 127.86,116.712 
				135.051,158.313 			"/>
			<polyline fill="none" stroke="#333333" stroke-width="2" stroke-miterlimit="10" points="97.491,43.341 97.491,43.472 
				97.661,138.712 97.661,138.831 			"/>
		</g>
	</g>
</g>
<rect x="97.661" y="27.771" fill="#FFFFFF" stroke="#FFFFFF" stroke-miterlimit="10" width="63.484" height="137.625"/>
</svg>
